<svg width="16" height="18" viewBox="0 0 16 18" fill="none" xmlns="http://www.w3.org/2000/svg">
<g clip-path="url(#clip0_608_15)">
<path d="M14.625 1.125H1.12148C0.502734 1.125 0 1.63477 0 2.26055V15.7395C0 16.3652 0.502734 16.875 1.12148 16.875H14.625C15.2437 16.875 15.75 16.3652 15.75 15.7395V2.26055C15.75 1.63477 15.2437 1.125 14.625 1.125ZM4.76016 14.625H2.42578V7.10859H4.76367V14.625H4.76016ZM3.59297 6.08203C2.84414 6.08203 2.23945 5.47383 2.23945 4.72852C2.23945 3.9832 2.84414 3.375 3.59297 3.375C4.33828 3.375 4.94648 3.9832 4.94648 4.72852C4.94648 5.47734 4.3418 6.08203 3.59297 6.08203ZM13.5105 14.625H11.1762V10.9687C11.1762 10.0969 11.1586 8.97539 9.96328 8.97539C8.74687 8.97539 8.56055 9.92461 8.56055 10.9055V14.625H6.22617V7.10859H8.46562V8.13516H8.49726C8.81015 7.54453 9.57305 6.92226 10.7086 6.92226C13.0711 6.92226 13.5105 8.47969 13.5105 10.5047V14.625Z" fill="black"/>
</g>
<defs>
<clipPath id="clip0_608_15">
<rect width="15.75" height="18" fill="white"/>
</clipPath>
</defs>
</svg>
