<svg width="18" height="18" viewBox="0 0 18 18" fill="none" xmlns="http://www.w3.org/2000/svg">
<g clip-path="url(#clip0_609_31)">
<path d="M13.7426 10.4941C13.7426 10.4941 13.7426 10.4977 13.7461 10.4977C14.0695 11.1797 14.2523 11.9426 14.2523 12.7477C14.2488 15.648 11.9004 18 9 18C6.09961 18 3.75117 15.648 3.75117 12.7512C3.75117 11.9461 3.93398 11.1832 4.25742 10.5012C4.31719 10.3746 4.38398 10.248 4.4543 10.125C4.60898 9.85781 4.78477 9.6082 4.98164 9.37617C5.94492 8.23008 7.38984 7.50234 9.00352 7.50234C10.1848 7.50234 11.2746 7.89258 12.1535 8.55352C12.4734 8.79609 12.7652 9.07031 13.0254 9.37969C13.2223 9.61172 13.398 9.86484 13.5527 10.1285C13.623 10.248 13.6863 10.3746 13.7461 10.4977L13.7426 10.4941ZM14.6707 9.8332C13.6125 7.78008 11.4715 6.37383 9 6.37383C6.52852 6.37383 4.3875 7.78008 3.3293 9.8332L0 7.12617L9 0L18 7.12617L14.6707 9.83672V9.8332Z" fill="black"/>
</g>
<defs>
<clipPath id="clip0_609_31">
<rect width="18" height="18" fill="white"/>
</clipPath>
</defs>
</svg>
