<svg width="35" height="26" viewBox="0 0 35 26" fill="none" xmlns="http://www.w3.org/2000/svg">
<path d="M9.77246 21.9019V18.5641L9.7033 18.5956C9.65536 18.6174 9.58439 18.6185 9.47199 18.5991C9.31394 18.5719 9.3084 18.5732 9.25329 18.6506C9.22219 18.6943 9.19675 18.7426 9.19675 18.7581C9.19675 18.7736 9.15141 18.8208 9.096 18.863C9.00143 18.9352 8.99524 18.95 8.99524 19.1054C8.99524 19.2397 8.97903 19.2966 8.90952 19.4062C8.80828 19.5658 8.745 19.5773 8.58138 19.4662C8.48913 19.4035 8.45124 19.3942 8.3528 19.4099C8.26856 19.4234 8.20951 19.4152 8.14643 19.3812L8.05805 19.3336L7.92934 19.4591C7.85854 19.528 7.75362 19.6062 7.69618 19.6327C7.59519 19.6793 7.58737 19.6787 7.45913 19.6138C7.37132 19.5694 7.23475 19.5367 7.05499 19.5172C6.81217 19.4908 6.65943 19.4433 6.56552 19.365C6.3642 19.1972 6.33016 19.1332 6.3792 19.0149C6.40865 18.9438 6.40873 18.924 6.37958 18.9142C6.35962 18.9076 6.25667 18.8324 6.1508 18.7472C6.04493 18.662 5.94075 18.5922 5.91928 18.592C5.84261 18.5911 5.65606 18.4166 5.65606 18.3456C5.65606 18.306 5.63118 18.2637 5.59711 18.2455C5.56469 18.2281 5.52615 18.1824 5.51146 18.1438C5.49582 18.1026 5.46163 18.0736 5.4289 18.0736C5.37255 18.0736 5.13791 17.8762 5.13791 17.8288C5.13791 17.8148 5.10389 17.7678 5.0623 17.7244L4.9867 17.6455L4.90546 17.7056C4.814 17.7732 4.77972 17.7635 4.54159 17.6025C4.43189 17.5283 4.41118 17.5236 4.32569 17.5539C4.27369 17.5723 4.09834 17.5951 3.93603 17.6046C3.53507 17.6279 3.53337 17.6259 3.52814 17.1301C3.5248 16.8152 3.51636 16.7532 3.46751 16.6861C3.43628 16.6432 3.41073 16.594 3.41073 16.5767C3.41073 16.5027 3.31766 16.375 3.25156 16.3584C3.13335 16.3287 3.06633 16.2048 3.07107 16.0247C3.07433 15.8996 3.0628 15.855 3.01449 15.8067C2.9619 15.7542 2.94228 15.7504 2.86786 15.7785C2.804 15.8026 2.74544 15.8025 2.63986 15.7781C2.4293 15.7295 2.29869 15.6402 2.2157 15.488C2.16986 15.4039 2.1001 15.3295 2.02865 15.2885C1.89089 15.2095 1.82796 15.0966 1.80666 14.8902C1.79785 14.8049 1.77776 14.7351 1.762 14.7351C1.68151 14.7351 1.54046 14.4848 1.53979 14.3407C1.53971 14.3216 1.50725 14.2583 1.46767 14.2C1.42809 14.1417 1.39571 14.0643 1.39571 14.028C1.39571 13.9908 1.3737 13.9545 1.34533 13.9449C1.27767 13.9219 1.13663 13.7957 1.13663 13.758C1.13663 13.7414 1.12367 13.7279 1.10784 13.7279C1.09201 13.7279 1.07905 13.7027 1.07905 13.672C1.07905 13.6413 1.06609 13.6081 1.05026 13.5983C0.98452 13.5577 1.03569 13.3994 1.15624 13.2704C1.19078 13.2334 1.22754 13.1529 1.23793 13.0914C1.24832 13.0299 1.26864 12.9796 1.28308 12.9796C1.29752 12.9796 1.30934 12.9654 1.30934 12.9482C1.30934 12.9309 1.33452 12.8847 1.3653 12.8456C1.42889 12.7648 1.41516 12.6918 1.33635 12.6918C1.29726 12.6918 1.2784 12.6632 1.26522 12.5839C1.23785 12.4192 1.23836 12.4199 1.09005 12.3449C1.01357 12.3062 0.933541 12.2583 0.912213 12.2385C0.890886 12.2187 0.864295 12.2025 0.853123 12.2025C0.841951 12.2025 0.79279 12.1669 0.743878 12.1234C0.694966 12.0799 0.630548 12.0299 0.600728 12.0124C0.570907 11.9949 0.541901 11.9571 0.53628 11.9285C0.530691 11.8998 0.481103 11.834 0.426165 11.7822C0.334766 11.696 0.326672 11.675 0.330901 11.5352C0.333463 11.4511 0.334395 11.368 0.333075 11.3504C0.330513 11.317 0.184571 11.1591 0.076807 11.0732C0.00570632 11.0166 -0.00193557 10.9411 0.0491136 10.8C0.0731968 10.7334 0.0748039 10.6966 0.0542377 10.6829C0.00303558 10.6487 -0.0173832 10.5568 0.0170337 10.5153C0.0350767 10.4936 0.0393002 10.4758 0.0264201 10.4758C0.01354 10.4758 0.0281281 10.4568 0.0588804 10.4335C0.135392 10.3757 0.426781 10.375 0.474585 10.4326C0.494297 10.4563 0.527184 10.4758 0.547673 10.4758C0.568162 10.4758 0.590459 10.4919 0.597221 10.5117C0.606158 10.5379 0.641281 10.53 0.725881 10.4829C0.792246 10.446 0.891657 10.4182 0.957236 10.4182C1.0607 10.4182 1.0928 10.3981 1.27741 10.2179C1.45886 10.0407 1.50672 10.0103 1.69105 9.95497C1.80569 9.92054 1.95202 9.89413 2.01622 9.89629C2.10065 9.89916 2.16037 9.87983 2.23211 9.82656C2.28666 9.78606 2.37397 9.73249 2.42613 9.70753C2.51959 9.66281 2.52326 9.66371 2.67581 9.76875C2.79335 9.84969 2.8537 9.87315 2.92639 9.86618C3.01574 9.85761 3.02392 9.84783 3.04857 9.72029C3.06309 9.6451 3.08576 9.58359 3.09895 9.58359C3.11212 9.58359 3.1229 9.56028 3.1229 9.53178C3.1229 9.45072 3.18231 9.41091 3.30327 9.41091C3.36447 9.41091 3.44048 9.39704 3.47216 9.38009C3.51575 9.35676 3.54584 9.35979 3.59584 9.39254C3.65998 9.43456 3.66303 9.43232 3.7004 9.31544C3.74945 9.16206 3.86038 8.98162 3.91957 8.95891C3.94474 8.94925 3.98873 8.95596 4.01734 8.97382C4.06137 9.00132 4.08214 8.98987 4.15267 8.89922C4.1985 8.84033 4.24422 8.76948 4.25427 8.74178C4.28401 8.65982 4.42715 8.67851 4.53401 8.7783C4.62107 8.85961 4.62951 8.86192 4.66567 8.81428C4.70626 8.7608 4.71561 8.71679 4.70777 8.61611C4.70513 8.58261 4.72743 8.51138 4.75725 8.45783C4.80589 8.3705 4.82608 8.35952 4.95291 8.3514C5.03069 8.34643 5.11647 8.32232 5.14352 8.29784C5.20812 8.2394 5.73814 8.19702 5.83599 8.24248C5.87477 8.2605 5.88637 8.25294 5.88637 8.20967C5.88637 8.17876 5.90695 8.11223 5.93209 8.06183C5.99154 7.9427 6.31 7.78972 6.44561 7.81516C6.51458 7.82809 6.56039 7.81321 6.64946 7.74905C6.71265 7.70352 6.826 7.64915 6.90134 7.62822C6.99902 7.6011 7.04859 7.56886 7.07406 7.51589C7.10222 7.45734 7.19201 7.38852 7.29038 7.3501C7.32248 7.33756 7.24844 7.24861 7.19466 7.23511C7.15193 7.22439 7.12175 7.19051 7.11155 7.14183C7.09024 7.04008 7.18374 6.74994 7.27449 6.63623C7.3606 6.52835 7.44198 6.52277 7.59685 6.61413C7.70821 6.67982 7.85665 6.69718 7.88701 6.64808C7.89679 6.63225 7.94938 6.6193 8.00385 6.6193C8.05833 6.6193 8.10291 6.63225 8.10291 6.64808C8.10291 6.6639 8.11543 6.67686 8.13073 6.67686C8.14603 6.67686 8.2039 6.72219 8.25931 6.77759C8.31472 6.83299 8.36751 6.87832 8.37662 6.87832C8.40773 6.87832 8.49323 6.97893 8.53558 7.06538C8.58395 7.16413 8.67841 7.27664 8.67907 7.23629C8.6793 7.22144 8.69194 7.22869 8.70714 7.25246C8.72251 7.27646 8.72701 7.38032 8.71728 7.4864L8.69979 7.67717L8.80628 7.71231C8.86485 7.73164 8.91663 7.74292 8.92136 7.73738C8.9261 7.73187 8.96424 7.67228 9.00615 7.60501L9.08235 7.48269H9.29481C9.46198 7.48269 9.51099 7.47299 9.52474 7.43717C9.55352 7.36218 9.54484 7.27565 9.4956 7.14674C9.44942 7.02585 9.44975 7.0235 9.53152 6.89429C9.57869 6.81976 9.64801 6.75203 9.69328 6.73625L9.7725 6.70864V3.35432C9.7725 0.861633 9.78093 0 9.80533 0C9.82339 0 10.3448 0.505612 10.964 1.12358C11.5832 1.74155 12.2582 2.41375 12.464 2.61734C12.6698 2.82094 12.9264 3.07942 13.0341 3.19176C13.1419 3.30409 13.2353 3.39599 13.2417 3.39599C13.2481 3.39599 13.3931 3.53987 13.564 3.71573C13.9753 4.13927 14.3338 4.49806 14.5328 4.68551C14.622 4.76951 14.6949 4.85045 14.6949 4.86538C14.6949 4.88031 14.7071 4.89253 14.7221 4.89253C14.737 4.89253 14.8136 4.96053 14.8922 5.04363C14.9709 5.12673 16.186 6.34421 17.5926 7.74915C18.9991 9.15408 20.4836 10.637 20.8915 11.0444C21.2994 11.4519 22.1921 12.3454 22.8753 13.03C23.5584 13.7146 24.1332 14.2747 24.1526 14.2747C24.1719 14.2747 24.2109 14.2393 24.2393 14.196C24.3454 14.0341 24.4051 13.99 24.4944 14.0076C24.6094 14.0304 24.8393 14.2644 24.8846 14.405C24.9049 14.4678 24.9311 14.5323 24.9428 14.5481C24.9545 14.5639 24.9728 14.6254 24.9835 14.6848C24.9975 14.7623 25.0176 14.7927 25.0548 14.7927C25.0833 14.7927 25.13 14.8186 25.1587 14.8503C25.1873 14.8819 25.2282 14.9078 25.2495 14.9078C25.2849 14.9078 25.2994 14.9505 25.296 15.0445C25.2945 15.0859 25.4264 15.0924 25.487 15.054C25.5365 15.0227 25.7047 15.1251 25.7435 15.21C25.758 15.2417 25.7854 15.3647 25.8045 15.4834C25.8235 15.6021 25.8534 15.7484 25.8709 15.8084C25.8977 15.9002 25.8951 15.9251 25.8547 15.9655C25.8099 16.0103 25.7949 16.0012 25.6295 15.8276L25.4523 15.6417L25.469 15.7692C25.4822 15.8704 25.4712 15.9237 25.4157 16.028C25.2992 16.2469 25.3315 16.3439 25.5587 16.4574C25.6417 16.4988 25.6912 16.5427 25.6912 16.5747C25.6912 16.6635 25.7907 16.7497 25.8933 16.7497C25.948 16.7497 26.0641 16.7923 26.1681 16.8505C26.3696 16.9631 26.4786 16.9753 26.5808 16.8967L26.65 16.8435L26.4873 16.6834C26.3978 16.5953 26.3245 16.5094 26.3245 16.4926C26.3245 16.4757 26.3083 16.4615 26.2885 16.461C26.2405 16.4596 26.123 16.3601 26.123 16.3206C26.123 16.3034 26.1121 16.2892 26.0987 16.2892C26.0854 16.2892 26.0219 16.2362 25.9576 16.1713L25.8408 16.0534L25.8987 15.9955C25.9306 15.9636 26.0038 15.9313 26.0614 15.9237C26.1492 15.9121 26.1884 15.9268 26.3032 16.0148C26.4252 16.1082 26.4423 16.114 26.4584 16.0678C26.5012 15.9448 26.6775 15.5523 26.7048 15.5194C26.7212 15.4996 26.7583 15.4834 26.7872 15.4834C26.8161 15.4834 26.8502 15.4659 26.8628 15.4445C26.8971 15.3864 27.0008 15.3395 27.0949 15.3395C27.1651 15.3395 27.187 15.3202 27.2336 15.2172L27.2889 15.0949L27.4688 15.0952C27.5677 15.0953 27.6487 15.0861 27.6487 15.0747C27.6487 15.0632 27.6761 15.0392 27.7095 15.0213C27.7702 14.9888 27.7832 14.9925 28.0297 15.1136C28.1033 15.1497 28.1318 15.1445 28.221 15.0786C28.309 15.0135 28.6402 14.9837 28.6787 15.0374C28.6901 15.0533 28.735 15.0846 28.7785 15.1071C28.8221 15.1295 28.8577 15.159 28.8577 15.1725C28.8577 15.219 29.0396 15.3971 29.087 15.3971C29.113 15.3971 29.1945 15.4353 29.2681 15.482L29.4018 15.5668L29.5141 15.4316C29.5928 15.3369 29.6313 15.2593 29.6426 15.1724C29.6729 14.9391 29.933 14.8186 30.1557 14.9346L30.2658 14.9921L30.3304 14.8996C30.3659 14.8488 30.4086 14.7976 30.4252 14.786C30.4959 14.7364 30.6323 14.766 30.9159 14.8923C31.0082 14.9334 31.0739 14.94 31.2476 14.9256C31.3667 14.9157 31.5072 14.8953 31.5599 14.8802C31.6362 14.8583 31.6828 14.8647 31.7895 14.9119C32.0268 15.0169 32.0607 15.0362 32.141 15.111C32.2102 15.1755 32.2266 15.1798 32.2732 15.1457C32.3387 15.0978 32.4408 15.1202 32.5567 15.208C32.6042 15.244 32.6855 15.2953 32.7374 15.3221C32.7893 15.3488 32.893 15.4316 32.9679 15.5062C33.0953 15.633 33.121 15.6839 33.2027 15.9714C33.2165 16.0202 33.2528 16.0498 33.3199 16.0672C33.3733 16.0811 33.4413 16.1094 33.4709 16.1301C33.5005 16.1509 33.5476 16.1619 33.5754 16.1546C33.6332 16.1395 33.825 16.2435 33.8475 16.3022C33.8557 16.3236 33.9184 16.3504 33.9868 16.3617C34.1364 16.3865 34.1964 16.4157 34.3214 16.5242C34.4014 16.5937 34.4392 16.606 34.56 16.6018C34.6674 16.598 34.7246 16.6123 34.7876 16.6588C34.8338 16.693 34.8819 16.7211 34.8944 16.7212C34.9069 16.7213 34.9371 16.7569 34.9614 16.8003C35.0012 16.8714 35.0012 16.9014 34.9608 17.1016C34.9361 17.2238 34.9 17.3397 34.8805 17.3592C34.8611 17.3786 34.8452 17.4099 34.8452 17.4288C34.8452 17.4676 34.7809 17.498 34.6989 17.498C34.6657 17.498 34.6436 17.5181 34.6433 17.5484C34.6431 17.5761 34.5912 17.7147 34.5281 17.8564C34.4637 18.0009 34.4134 18.1592 34.4134 18.2169C34.4134 18.2735 34.3919 18.3506 34.3656 18.3881C34.3393 18.4257 34.3077 18.503 34.2955 18.56C34.2219 18.9035 34.1442 19.0551 34.012 19.1136C33.9667 19.1337 33.91 19.1832 33.8861 19.2237C33.8485 19.2873 33.8481 19.3047 33.8833 19.3529C33.9057 19.3835 33.9241 19.4546 33.9241 19.5109C33.9242 19.5673 33.9522 19.6587 33.9864 19.7141C34.0393 19.7999 34.0505 19.8703 34.0618 20.1905C34.0722 20.4836 34.0664 20.5756 34.0355 20.609C34.0138 20.6326 33.9817 20.6772 33.9643 20.7082C33.9436 20.745 33.8953 20.7677 33.8251 20.7736C33.7659 20.7786 33.6729 20.8077 33.6184 20.8384C33.5297 20.8882 33.4595 20.894 32.9513 20.894C32.4146 20.894 32.3815 20.8909 32.3475 20.8365C32.3277 20.8048 32.2812 20.7789 32.2441 20.7789C32.0763 20.7789 31.7693 20.4662 31.6024 20.1251C31.5615 20.0415 31.5157 19.9731 31.5007 19.9731C31.4498 19.9731 31.2757 19.8226 31.2386 19.7466C31.2054 19.6785 31.1874 19.6715 31.0588 19.6772C30.8689 19.6855 30.7865 19.7076 30.7854 19.7506C30.7837 19.8137 30.6781 19.9155 30.6143 19.9155C30.5802 19.9155 30.5278 19.9025 30.498 19.8865C30.4569 19.8645 30.4032 19.8754 30.2768 19.9314C30.1575 19.9842 30.0831 20.0004 30.0163 19.9879C29.9648 19.9783 29.9228 19.9613 29.9228 19.95C29.9228 19.9253 29.7517 19.8467 29.7348 19.8637C29.7282 19.8702 29.9038 20.054 30.125 20.272C30.3463 20.49 30.5273 20.6723 30.5273 20.6772C30.5273 20.6821 30.6277 20.7838 30.7504 20.9032C30.8731 21.0226 31.0771 21.2252 31.2037 21.3534C31.3304 21.4816 31.6587 21.8095 31.9334 22.082C32.208 22.3546 32.4606 22.6093 32.4947 22.6479C32.5288 22.6866 32.7684 22.9262 33.0272 23.1804C33.286 23.4345 33.5451 23.6933 33.6029 23.7553C33.8484 24.0186 34.6823 24.8368 34.7051 24.8368C34.7188 24.8368 34.7301 24.8507 34.7301 24.8677C34.7301 24.8846 34.7941 24.9567 34.8723 25.0279C34.9595 25.1072 35.0085 25.1733 34.9988 25.1986C34.9851 25.2342 33.2889 25.2398 22.3777 25.2398H9.77248L9.77246 21.9019ZM20.7688 23.6798C20.7925 23.6735 20.8379 23.6544 20.8695 23.6372C20.9252 23.607 21.1744 23.5624 21.4758 23.5287C21.5677 23.5184 21.6738 23.5282 21.7636 23.5555C22.0194 23.6331 22.1046 23.6116 22.307 23.4187C22.353 23.3748 22.421 23.3312 22.458 23.322C22.497 23.3122 22.5325 23.2762 22.5425 23.2363C22.552 23.1985 22.5713 23.1676 22.5854 23.1676C22.6294 23.1676 22.6136 23.0922 22.5535 23.0158C22.5051 22.9543 22.4959 22.8991 22.4959 22.6705C22.4959 22.4387 22.5048 22.387 22.5556 22.3224C22.5884 22.2807 22.6415 22.2466 22.6736 22.2466C22.7057 22.2466 22.8817 22.2184 23.0647 22.184C23.3574 22.1289 23.4213 22.1254 23.5949 22.1552C23.8546 22.1997 23.8502 22.2002 23.9469 22.1171C24.0226 22.052 24.0555 22.045 24.2923 22.044C24.5379 22.0428 24.5601 22.0377 24.6503 21.9606C24.7525 21.8731 24.8275 21.7525 24.8278 21.6749C24.8278 21.649 24.8408 21.5813 24.8567 21.5245C24.8806 21.4382 24.9042 21.4154 24.9988 21.3871C25.1038 21.3556 25.1249 21.3599 25.2859 21.4442C25.3814 21.4943 25.4663 21.5563 25.4745 21.5821C25.4961 21.6504 25.6737 21.738 25.7446 21.7155C25.805 21.6963 25.9029 21.7347 25.9733 21.8051C26.0387 21.8704 26.1542 21.8486 26.2783 21.7474C26.3433 21.6944 26.4681 21.6135 26.5556 21.5675C26.7453 21.4679 26.8714 21.3725 26.8714 21.3287C26.8714 21.3112 26.8824 21.2969 26.8959 21.2969C26.9093 21.2969 26.9767 21.259 27.0457 21.2127C27.1385 21.1504 27.184 21.1354 27.2209 21.1551C27.3165 21.2063 27.3981 21.1822 27.5034 21.0715C27.6245 20.9443 27.7685 20.665 27.836 20.4267C27.8622 20.3342 27.9251 20.211 27.9791 20.1464C28.0321 20.0829 28.0973 19.9738 28.1241 19.9039C28.1703 19.7829 28.1791 19.776 28.3064 19.7621C28.38 19.7541 28.5756 19.7191 28.7409 19.6845L29.0416 19.6214L29.1871 19.6969C29.2671 19.7385 29.3542 19.7723 29.3806 19.772C29.407 19.7719 29.4329 19.7839 29.4382 19.799C29.4435 19.8141 29.5061 19.8338 29.5773 19.8428C29.6885 19.8568 29.6977 19.8544 29.6421 19.8254C29.6065 19.8068 29.5773 19.7803 29.5773 19.7666C29.5773 19.7529 29.4769 19.6448 29.3542 19.5264C29.2315 19.408 29.1385 19.3111 29.1476 19.3111C29.1855 19.3111 29.45 19.4071 29.4751 19.43C29.4901 19.4438 29.5485 19.4551 29.6047 19.4552C29.7405 19.4553 29.9103 19.5043 29.965 19.5589C30.0047 19.5986 30.025 19.5956 30.1657 19.529C30.3331 19.4498 30.4536 19.4345 30.4868 19.4881C30.5002 19.5098 30.5336 19.489 30.5836 19.4277C30.6594 19.3348 30.7505 19.3007 31.0245 19.2625C31.1622 19.2433 31.4378 19.3745 31.5041 19.4908C31.5289 19.5342 31.5709 19.5698 31.5975 19.5699C31.6241 19.57 31.6652 19.5896 31.689 19.6133C31.7127 19.637 31.7453 19.6565 31.7614 19.6565C31.8042 19.6565 31.8802 19.7752 31.8805 19.8427C31.8811 19.9826 32.1314 20.376 32.2197 20.376C32.2392 20.376 32.2777 20.364 32.3052 20.3495C32.4924 20.2503 32.881 20.1528 33.1468 20.1384L33.2763 20.1313L33.2989 19.973C33.3114 19.886 33.3211 19.7139 33.3205 19.5906C33.3193 19.3266 33.3774 19.185 33.5368 19.0634C33.5933 19.0203 33.659 18.9475 33.6828 18.9014C33.7066 18.8554 33.7706 18.7915 33.825 18.7594C33.9125 18.7078 33.924 18.6871 33.9241 18.5816C33.9242 18.5116 33.9489 18.4216 33.9838 18.3644C34.0166 18.3106 34.0325 18.2588 34.0191 18.2493C33.9118 18.1724 33.8886 17.7523 33.9816 17.5699C34.0719 17.3929 34.0581 17.3404 33.8775 17.1729C33.5627 16.8812 33.2331 16.5392 33.2331 16.5043C33.2331 16.4849 33.164 16.427 33.0794 16.3758C32.9236 16.2814 32.8606 16.1827 32.8575 16.0282C32.855 15.8977 32.7602 15.7623 32.5855 15.6392L32.4127 15.5176L32.3392 15.5868C32.2988 15.6249 32.2511 15.6561 32.2332 15.6561C32.1805 15.6561 31.9979 15.5295 31.9966 15.492C31.9959 15.473 31.9362 15.4167 31.864 15.367L31.7326 15.2767L31.4289 15.3127C31.1004 15.3516 30.9614 15.3335 30.7299 15.2217C30.6046 15.1611 30.556 15.1532 30.556 15.1934C30.556 15.208 30.5162 15.2598 30.4675 15.3085C30.368 15.4079 30.2586 15.4233 30.1769 15.3494C30.1278 15.3051 30.1242 15.3052 30.1242 15.3508C30.1242 15.4162 30.0405 15.5754 29.9831 15.6192C29.9578 15.6384 29.9033 15.6546 29.8619 15.6551C29.8074 15.6558 29.7651 15.6872 29.7083 15.7691C29.6652 15.8312 29.5848 15.9035 29.5296 15.9297C29.4325 15.9758 29.4242 15.975 29.2801 15.9052C29.1982 15.8655 29.0923 15.8249 29.0448 15.8148C28.9897 15.8032 28.8883 15.7241 28.7651 15.5968C28.55 15.3745 28.4859 15.3542 28.3621 15.469C28.2736 15.551 28.1373 15.5635 28.0057 15.5017C27.9491 15.4751 27.8557 15.4668 27.7166 15.4759C27.5303 15.4882 27.5075 15.4966 27.4719 15.5652C27.407 15.6904 27.3515 15.7424 27.2824 15.7424C27.2203 15.7424 27.2168 15.7533 27.2163 15.951C27.2158 16.1322 27.2045 16.1776 27.1301 16.2961C27.0423 16.4358 26.8267 16.6171 26.7815 16.5892C26.7676 16.5806 26.7563 16.5978 26.7563 16.6274C26.7563 16.6569 26.7372 16.7063 26.714 16.737C26.6908 16.7677 26.6713 16.8021 26.6708 16.8134C26.6698 16.8345 27.7184 17.8831 28.5999 18.7427L29.0943 19.2247H28.9634C28.8915 19.2247 28.7987 19.2376 28.7572 19.2534C28.7158 19.2691 28.5303 19.3085 28.3451 19.3407C28.16 19.373 27.9846 19.4067 27.9555 19.4156C27.8957 19.4338 27.8213 19.5896 27.8213 19.6966C27.8213 19.7355 27.8019 19.7868 27.7782 19.8106C27.7544 19.8343 27.735 19.8636 27.735 19.8755C27.735 19.8875 27.711 19.9241 27.6816 19.9567C27.6258 20.0189 27.5319 20.2475 27.4775 20.4537C27.4599 20.5203 27.4265 20.5939 27.4032 20.6172C27.3798 20.6405 27.3608 20.6719 27.3608 20.6869C27.3608 20.7019 27.3403 20.7312 27.3152 20.752C27.2795 20.7816 27.2579 20.7823 27.2149 20.7555C27.1346 20.7054 27.06 20.7135 27.0009 20.7788C26.9691 20.814 26.9123 20.8363 26.8546 20.8363C26.7555 20.8363 26.6557 20.9287 26.6242 21.0497C26.614 21.089 26.5383 21.1438 26.4051 21.2084C26.2932 21.2627 26.1716 21.3372 26.1348 21.3739C26.0981 21.4107 26.0614 21.4407 26.0533 21.4407C26.014 21.4407 25.7697 21.2658 25.719 21.2014C25.6552 21.1203 25.4837 21.0517 25.4127 21.0789C25.3862 21.0891 25.3271 21.066 25.2719 21.024C25.162 20.9401 25.0638 20.9333 24.8777 20.9967C24.6866 21.0618 24.6084 21.1549 24.532 21.4082L24.4658 21.6278L24.2221 21.643C24.0769 21.6521 23.9388 21.6783 23.8804 21.7078C23.767 21.7651 23.2491 21.7793 23.1963 21.7265C23.1745 21.7047 23.1038 21.7161 22.9531 21.7658C22.8362 21.8044 22.6975 21.844 22.6447 21.8539C22.4767 21.8854 22.3585 21.9587 22.3097 22.0617C22.2635 22.159 22.2606 22.1602 22.0756 22.1602C21.85 22.1602 21.6486 22.2397 21.6219 22.3392C21.6122 22.3753 21.6042 22.5239 21.6039 22.6695L21.6034 22.9342L21.4441 23.0399C21.3185 23.1233 21.2441 23.1502 21.0915 23.1676C20.9852 23.1797 20.8319 23.2162 20.7508 23.2486C20.6226 23.2999 20.5291 23.3086 20.0312 23.3155C18.8447 23.332 18.9087 23.3406 18.6671 23.1328C18.5957 23.0714 18.4905 22.9926 18.4332 22.9576C18.1944 22.8119 18.0229 22.6592 17.8704 22.4567C17.7814 22.3385 17.6796 22.2308 17.644 22.2173C17.6085 22.2038 17.5748 22.1791 17.5692 22.1625C17.5636 22.1458 17.4942 22.1243 17.415 22.1147C17.3359 22.105 17.2287 22.0782 17.1769 22.0551C17.1141 22.027 17.0415 22.0192 16.9594 22.0315C16.8121 22.0535 16.7427 22.0009 16.7936 21.9059C16.8296 21.8386 16.7857 21.6882 16.7046 21.6012C16.6758 21.5703 16.6522 21.5376 16.6522 21.5286C16.6522 21.5197 16.6164 21.4964 16.5725 21.4771C16.5041 21.4468 16.4878 21.4154 16.4574 21.2549C16.4379 21.1522 16.4219 21.0297 16.4219 20.9827C16.4219 20.9357 16.409 20.8893 16.3931 20.8795C16.3773 20.8697 16.3642 20.7751 16.3639 20.6692C16.3637 20.5632 16.3514 20.4575 16.3367 20.4342C16.3198 20.4075 16.3204 20.3852 16.3384 20.3741C16.3542 20.3644 16.3801 20.2287 16.3961 20.0727C16.4206 19.8334 16.4349 19.7822 16.4874 19.7454C16.5216 19.7215 16.6184 19.6459 16.7023 19.5775C16.8121 19.4882 16.8968 19.4453 17.0035 19.425C17.0851 19.4096 17.1733 19.3776 17.1994 19.354C17.2298 19.3265 17.3081 19.3106 17.4173 19.3098C17.8294 19.3067 17.8832 19.2719 18.0497 18.9008C18.0862 18.8195 18.131 18.7782 18.2305 18.7342C18.3033 18.702 18.3828 18.6584 18.4071 18.6374C18.4314 18.6163 18.4837 18.5918 18.5233 18.5829C18.5629 18.574 18.6536 18.5528 18.7248 18.5357C18.796 18.5187 18.8836 18.4981 18.9195 18.4899C18.9609 18.4805 19.0026 18.4336 19.0342 18.3607C19.083 18.248 19.0862 18.2462 19.2353 18.2462C19.3222 18.2462 19.3869 18.2591 19.3869 18.2765C19.3869 18.2949 19.4456 18.3033 19.537 18.2981C19.6714 18.2903 19.6941 18.2791 19.7529 18.1916C19.8091 18.108 19.8187 18.0566 19.8187 17.839V17.5843H20.0022C20.2982 17.5843 20.3471 17.5661 20.4166 17.4306C20.4858 17.2957 20.5521 16.9591 20.5311 16.8494C20.5235 16.8096 20.5285 16.7701 20.5422 16.7617C20.5559 16.7532 20.5671 16.7211 20.5671 16.6904C20.5671 16.6545 20.5869 16.6345 20.6223 16.6345C20.6967 16.6345 20.7686 16.6052 20.7686 16.5749C20.7686 16.5189 21.0067 16.1878 21.1836 15.9975C21.2879 15.8855 21.3731 15.771 21.3731 15.7431C21.3731 15.7082 21.4023 15.6875 21.4667 15.6769C21.6151 15.6524 21.9243 15.4951 22.0456 15.3823C22.1536 15.2819 22.4319 15.156 22.6069 15.1285C22.6967 15.1143 22.7261 15.1454 22.7261 15.2545C22.7261 15.2843 22.7645 15.348 22.8115 15.396C22.8807 15.4669 22.9201 15.4832 23.0202 15.4824C23.088 15.4819 23.1675 15.4633 23.1968 15.4411C23.2428 15.4063 23.2631 15.4069 23.3449 15.4459C23.505 15.5223 23.6506 15.4498 23.7468 15.2459C23.7748 15.1866 23.8092 15.138 23.8232 15.138C23.8372 15.138 23.8487 15.1186 23.8487 15.0948C23.8487 15.0711 23.8617 15.0517 23.8775 15.0517C23.8933 15.0517 23.9063 15.0019 23.9063 14.9412C23.9063 14.8507 23.9196 14.8246 23.9796 14.7973C24.0199 14.7789 24.0891 14.7639 24.1333 14.7639C24.188 14.7639 24.242 14.7327 24.3023 14.6666L24.3908 14.5692L24.266 14.4503C24.1591 14.3485 24.1315 14.3353 24.0741 14.3587C24.0372 14.3738 23.9605 14.3936 23.9037 14.4027C23.8469 14.4119 23.7737 14.4483 23.7412 14.4837C23.6575 14.5747 23.5609 14.766 23.5609 14.8405C23.5609 14.8753 23.5414 14.9231 23.5177 14.9468C23.4939 14.9706 23.4745 15.0104 23.4745 15.0352C23.4745 15.0859 23.3867 15.0963 23.3413 15.0509C23.3048 15.0144 23.161 15.0055 23.0931 15.0356C23.048 15.0555 23.0427 15.038 23.0427 14.8679C23.0427 14.6784 23.0424 14.6777 22.9242 14.592C22.859 14.5448 22.7631 14.4982 22.7111 14.4885C22.6254 14.4724 22.6149 14.459 22.5977 14.3446C22.5873 14.2752 22.5677 14.2116 22.5542 14.2032C22.5407 14.1948 22.5206 14.133 22.5096 14.0658C22.4818 13.8961 22.3815 13.6702 22.3339 13.6702C22.3121 13.6702 22.2943 13.6589 22.2943 13.645C22.2943 13.6177 22.1846 13.5704 22.0568 13.5425C22.0132 13.533 21.9776 13.5126 21.9776 13.497C21.9776 13.4815 21.9452 13.4688 21.9057 13.4688C21.8556 13.4688 21.8337 13.4531 21.8337 13.417C21.8337 13.3885 21.8231 13.3529 21.8102 13.3378C21.7561 13.2751 21.7157 13.0197 21.7468 12.9379C21.7822 12.8447 21.764 12.7619 21.7031 12.7385C21.6768 12.7284 21.661 12.683 21.661 12.6179C21.661 12.5381 21.6398 12.4936 21.5716 12.4299C21.4748 12.3395 21.3329 12.3173 21.3056 12.3883C21.2926 12.4221 21.2509 12.4109 21.0896 12.3303C20.9528 12.2618 20.8457 12.229 20.75 12.2261C20.6142 12.222 20.4232 12.1396 20.4232 12.085C20.4232 12.0705 20.4053 12.0586 20.3835 12.0586C20.3617 12.0586 20.3284 12.0399 20.3094 12.0171C20.2905 11.9943 20.2339 11.9716 20.1838 11.9667C20.1174 11.9603 20.0823 11.9364 20.055 11.8792C20.0082 11.7811 19.7886 11.6269 19.6956 11.6269C19.6128 11.6269 19.5612 11.682 19.4772 11.8599C19.3974 12.029 19.216 12.1222 19.1749 12.0152C19.1657 11.9913 19.1287 11.9583 19.0926 11.9418C19.0566 11.9253 19.0052 11.8638 18.9785 11.8053C18.9518 11.7468 18.908 11.6497 18.8811 11.5897C18.8542 11.5296 18.7959 11.4617 18.7515 11.4388C18.627 11.3744 18.6285 11.3491 18.7607 11.2849C18.8482 11.2424 18.9026 11.1886 18.9514 11.0962L19.0196 10.9669L18.9615 10.8495C18.9141 10.7537 18.9092 10.7171 18.9345 10.65C18.976 10.5401 18.9132 10.4448 18.746 10.3639C18.5519 10.27 18.4821 10.2817 18.4031 10.4216C18.3387 10.5358 18.3303 10.5405 18.1779 10.5484C17.7388 10.5711 17.6312 10.5627 17.63 10.5055C17.6281 10.4125 17.4827 10.303 17.361 10.303C17.3222 10.303 17.243 10.2587 17.1807 10.2021C17.0132 10.0498 16.6468 9.88068 16.3355 9.81196C16.2485 9.79273 16.1428 9.7529 16.1008 9.72345C16.0588 9.69399 15.9923 9.6699 15.9531 9.6699C15.8548 9.6699 15.7269 9.84269 15.711 9.99685C15.7004 10.0996 15.711 10.1288 15.7884 10.2096C15.8377 10.2611 15.8924 10.3452 15.91 10.3966C15.957 10.5338 16.0203 10.6213 16.1131 10.6777L16.1953 10.7277L16.0567 10.8061C15.9805 10.8493 15.8685 10.8916 15.8078 10.9001C15.7084 10.9141 15.6785 10.9411 15.509 11.1706C15.4054 11.3107 15.3061 11.4254 15.2883 11.4253C15.1889 11.4249 15.0911 11.3161 15.029 11.137C14.9662 10.9559 14.8203 10.7018 14.704 10.5711C14.6732 10.5365 14.6236 10.4757 14.5939 10.4361C14.5641 10.3965 14.5101 10.3566 14.4738 10.3475C14.4376 10.3384 14.3885 10.2934 14.3647 10.2473C14.3069 10.1357 14.173 10.044 14.0677 10.044C13.8854 10.044 13.8994 9.91865 14.0902 9.84324C14.2886 9.76484 14.4229 9.65176 14.4634 9.52906C14.4846 9.46488 14.5233 9.38937 14.5494 9.36126C14.6532 9.24951 14.6398 9.13245 14.5024 8.95191C14.28 8.65953 14.1364 8.56026 13.9089 8.54173C13.7555 8.52924 13.7368 8.53428 13.6778 8.60443L13.6136 8.68074L13.4885 8.6146C13.3683 8.55108 13.3601 8.5504 13.2806 8.59736C13.2351 8.62424 13.1978 8.65963 13.1978 8.67601C13.1977 8.69237 13.1724 8.66438 13.1416 8.61381C13.0529 8.4684 12.9631 8.42371 12.8028 8.44514L12.6653 8.46352L12.6079 8.33153C12.5366 8.16765 12.4466 8.10346 12.3238 8.12902C12.09 8.17774 12.0267 8.17827 11.9803 8.13197C11.9093 8.06097 11.408 7.87719 11.1912 7.84267C11.1084 7.82948 11.0646 7.80614 11.0528 7.7689C11.0433 7.73894 11.0055 7.6908 10.9688 7.66192C10.9058 7.61241 10.8839 7.54201 10.8531 7.28923C10.8413 7.19203 10.8268 7.16051 10.7529 7.07084C10.6898 6.9944 10.5031 6.87841 10.4422 6.87781C10.4141 6.87754 10.3607 6.84516 10.3234 6.80587C10.2511 6.7296 10.1778 6.7147 10.1266 6.76588C10.1038 6.78863 10.0749 6.78408 10.0219 6.7494C9.95145 6.70322 9.77914 6.69734 9.79391 6.74161C9.79787 6.75348 9.80113 7.04812 9.80113 7.39635C9.80113 8.05995 9.80656 8.08573 9.92409 7.97913C9.95463 7.95143 10.0269 7.91525 10.0847 7.89872C10.1897 7.86869 10.1898 7.86876 10.2334 7.98427C10.2608 8.05659 10.3147 8.12391 10.3774 8.16409C10.4325 8.19941 10.5413 8.27685 10.619 8.33618C10.7441 8.43152 10.7926 8.44868 11.0364 8.48395C11.4515 8.54395 11.8401 8.55863 11.8912 8.51624C11.9234 8.48947 11.9418 8.48898 11.9671 8.51422C11.9854 8.53254 12.0694 8.54753 12.1539 8.54753C12.2747 8.54753 12.3107 8.55824 12.3234 8.5979C12.3622 8.71928 12.4078 8.78098 12.512 8.8532C12.6081 8.91975 12.6334 8.9258 12.6961 8.89723C12.8188 8.84132 12.8405 8.85409 12.829 8.9754C12.819 9.08 12.8264 9.09209 12.952 9.17685C13.0255 9.22645 13.1015 9.26702 13.121 9.26702C13.1849 9.26702 13.2817 9.18032 13.329 9.08076C13.3791 8.97522 13.378 8.97526 13.5918 9.06965C13.7339 9.1324 13.7735 9.1222 13.8427 9.00511C13.8758 8.9491 13.9097 8.92356 13.9371 8.93406C13.9606 8.94307 14.0042 8.95046 14.034 8.95046C14.1083 8.95046 14.2295 9.13465 14.2128 9.2222C14.1957 9.31137 14.1025 9.41093 14.036 9.41093C14.0074 9.41093 13.9606 9.43683 13.9319 9.46849C13.9033 9.50014 13.8638 9.52604 13.8441 9.52604C13.7901 9.52604 13.6384 9.71144 13.5705 9.86057C13.5213 9.96858 13.516 10.007 13.5419 10.0695C13.5934 10.1937 13.9434 10.4551 14.0396 10.4411C14.0733 10.4362 14.1113 10.4559 14.13 10.4881C14.1707 10.5581 14.2926 10.6709 14.3493 10.691C14.3731 10.6994 14.4217 10.7483 14.4574 10.7997C14.4931 10.851 14.5611 10.9436 14.6085 11.0053C14.656 11.067 14.6948 11.1484 14.6948 11.1862C14.6948 11.2239 14.7159 11.2871 14.7417 11.3265C14.7676 11.3659 14.797 11.4387 14.8071 11.4882C14.8172 11.5378 14.8447 11.588 14.8681 11.6C14.8915 11.6119 14.9937 11.6688 15.0951 11.7265C15.3699 11.8827 15.4183 11.8691 15.6257 11.5774C15.7681 11.3772 15.819 11.3288 15.9568 11.263C16.1446 11.1732 16.2809 11.1629 16.358 11.2327C16.5223 11.3813 16.8825 11.1331 16.8825 10.8711V10.8003L17.0666 10.8623C17.1679 10.8963 17.2699 10.9401 17.2933 10.9595C17.3167 10.9789 17.3545 10.9876 17.3773 10.9789C17.4001 10.9701 17.4542 10.9958 17.4976 11.0359C17.5638 11.0973 17.604 11.1089 17.7496 11.1089C17.8653 11.1089 17.9373 11.1233 17.9661 11.1521C17.9899 11.1758 18.0469 11.1953 18.0929 11.1953C18.1707 11.1953 18.1745 11.2003 18.1484 11.2691C18.1329 11.3097 18.1203 11.362 18.1203 11.3854C18.1203 11.439 18.3745 11.7133 18.4241 11.7133C18.4444 11.7133 18.4653 11.7259 18.4705 11.7412C18.4758 11.7566 18.5125 11.7739 18.5521 11.7797C18.6112 11.7884 18.6334 11.8193 18.6763 11.9526C18.7137 12.0691 18.7543 12.1329 18.8202 12.1788C18.8706 12.214 18.9216 12.2584 18.9334 12.2774C18.9642 12.3271 19.2012 12.4616 19.258 12.4616C19.2844 12.4616 19.3768 12.4227 19.4634 12.3752C19.5499 12.3277 19.6481 12.2889 19.6815 12.2889C19.7149 12.2889 19.7631 12.2699 19.7888 12.2468C19.8301 12.2094 19.8494 12.2139 19.9593 12.2867C20.0275 12.3318 20.1313 12.3764 20.1901 12.3858C20.268 12.3983 20.3231 12.4342 20.394 12.5186C20.4473 12.5822 20.5068 12.6342 20.526 12.6342C20.5452 12.6342 20.569 12.6551 20.5788 12.6807C20.597 12.7281 20.6002 12.728 20.8342 12.6679C20.9264 12.6442 20.9636 12.6504 21.0789 12.7089C21.1536 12.7469 21.2444 12.778 21.2805 12.778C21.3603 12.7781 21.4032 12.8747 21.372 12.9836C21.3568 13.0364 21.3735 13.134 21.4264 13.3002C21.5176 13.5875 21.633 13.7191 21.9267 13.871C22.0543 13.9371 22.1295 13.9957 22.1481 14.0437C22.2084 14.1996 22.2438 14.3587 22.2275 14.4011C22.203 14.465 22.0315 14.5289 21.9172 14.5168C21.739 14.498 21.6183 14.4713 21.5844 14.4434C21.5628 14.4256 21.5444 14.4265 21.5323 14.4459C21.5221 14.4625 21.4822 14.4761 21.4438 14.4761C21.3936 14.4761 21.3535 14.5084 21.3015 14.5907C21.2618 14.6537 21.2292 14.7252 21.2292 14.7495C21.2292 14.8154 21.0904 15.0229 21.0464 15.0229C21.0007 15.0229 20.8571 15.1781 20.7995 15.2897C20.7583 15.3695 20.6624 15.4247 20.3656 15.5397C20.2786 15.5735 20.181 15.6232 20.1488 15.6502C20.0716 15.715 19.9626 15.951 19.9626 16.0536C19.9626 16.0984 19.944 16.1924 19.9213 16.2625C19.8986 16.3326 19.8652 16.4827 19.8472 16.5961C19.8276 16.7193 19.7949 16.819 19.7661 16.8439C19.7032 16.8981 19.5432 16.9512 19.4423 16.9512C19.341 16.9512 19.2598 17.0511 19.1956 17.2545C19.1453 17.414 19.1113 17.4392 18.9447 17.44C18.8819 17.4404 18.8279 17.478 18.7173 17.5987C18.6375 17.6858 18.5483 17.757 18.519 17.757C18.4897 17.757 18.4657 17.7673 18.4657 17.78C18.4657 17.8347 18.2365 17.8821 17.983 17.8798C17.7756 17.8778 17.7061 17.8874 17.6707 17.9228C17.6291 17.9644 17.6159 17.9636 17.5201 17.9133C17.4623 17.8831 17.4086 17.851 17.4007 17.8421C17.3668 17.8041 17.1719 17.7291 17.0608 17.7114C16.9531 17.6942 16.924 17.7035 16.7835 17.8003C16.6971 17.8597 16.6066 17.9502 16.5823 18.0013C16.5341 18.1029 16.3394 18.3957 16.3044 18.4192C16.2924 18.4273 16.2737 18.4694 16.2628 18.5127C16.2519 18.5561 16.2368 18.5916 16.2292 18.5916C16.2216 18.5916 16.1593 18.5513 16.0907 18.502C15.9679 18.4139 15.9636 18.413 15.8202 18.4498C15.6851 18.4844 15.6649 18.4824 15.5444 18.4222C15.4729 18.3865 15.4144 18.3454 15.4144 18.3307C15.4144 18.2773 15.1748 18.1311 15.0863 18.1305C15.0372 18.1302 14.9646 18.1045 14.9251 18.0736C14.8732 18.033 14.8074 18.0171 14.6897 18.0167C14.547 18.0162 14.5187 18.0257 14.4666 18.0918C14.4338 18.1335 14.4065 18.1821 14.406 18.1998C14.4054 18.2174 14.3862 18.2568 14.3632 18.2872C14.3245 18.3383 14.2855 18.3421 13.8531 18.3363C13.4128 18.3304 13.3761 18.3256 13.2344 18.2549C13.1516 18.2136 13.0766 18.1592 13.0678 18.1339C13.0461 18.0715 12.6663 17.8146 12.5958 17.8146C12.5647 17.8146 12.5312 17.8275 12.5214 17.8433C12.5116 17.8592 12.4162 17.8721 12.3094 17.8721C12.1334 17.8721 12.0885 17.8586 11.829 17.7274C11.6715 17.6477 11.5168 17.5538 11.4851 17.5187C11.3858 17.4087 11.2638 17.3253 11.2022 17.3253C11.1695 17.3253 11.1061 17.2901 11.0611 17.2471C10.9917 17.1806 10.9494 17.1671 10.7794 17.1575C10.5858 17.1466 10.5785 17.1486 10.5508 17.2214C10.5236 17.2929 10.4056 17.3322 10.4056 17.2697C10.4056 17.214 10.2304 17.1214 10.0693 17.0921C9.97721 17.0754 9.88958 17.0497 9.87454 17.0352C9.8595 17.0206 9.83735 17.0087 9.82532 17.0087C9.81328 17.0087 9.79969 17.2678 9.79509 17.5844C9.78756 18.1026 9.80383 18.2772 9.84262 18.0952C9.88165 17.912 9.89069 17.7249 9.86917 17.5454C9.85287 17.4093 9.85417 17.4063 9.92035 17.4254C9.95769 17.4362 10.0114 17.4515 10.0398 17.4594C10.0681 17.4673 10.1104 17.5215 10.1337 17.5798C10.1867 17.7122 10.317 17.7804 10.4238 17.7317C10.4628 17.714 10.532 17.6994 10.5776 17.6994C10.6333 17.6994 10.6805 17.6741 10.7213 17.6222L10.7821 17.5449L11.0185 17.6261C11.1602 17.6749 11.3223 17.7577 11.4232 17.8329C11.5158 17.902 11.6209 17.9585 11.6568 17.9585C11.6927 17.9585 11.7983 18.0102 11.8914 18.0735C12.0867 18.2061 12.2268 18.2243 12.3343 18.1311C12.3708 18.0995 12.4074 18.0736 12.4157 18.0736C12.4455 18.0736 12.7949 18.3153 12.7949 18.336C12.7949 18.3679 13.1325 18.5683 13.3104 18.642C13.3964 18.6776 13.5196 18.7071 13.5842 18.7076C13.6488 18.7081 13.83 18.7269 13.9868 18.7493C14.3505 18.8013 14.42 18.7774 14.5653 18.5502C14.6598 18.4027 14.6761 18.3902 14.7748 18.3908C14.8365 18.3911 14.9124 18.4153 14.9539 18.4477C14.9934 18.4787 15.0485 18.5043 15.0762 18.5046C15.1077 18.5051 15.1266 18.5275 15.1266 18.5647C15.1266 18.6455 15.1807 18.741 15.2146 18.7201C15.2297 18.7107 15.2499 18.7233 15.2593 18.7479C15.2724 18.782 15.3021 18.7887 15.3825 18.7759C15.4619 18.7631 15.5154 18.7749 15.5964 18.8227C15.6779 18.8707 15.7308 18.8822 15.8115 18.8693L15.9185 18.8522L15.9088 18.9742C15.9009 19.0734 15.913 19.1111 15.9734 19.1763C16.0766 19.2877 16.073 19.4383 15.9626 19.6255C15.779 19.9369 15.667 20.3467 15.7142 20.5347C15.7246 20.576 15.7639 20.6201 15.8038 20.6353C15.8474 20.6518 15.875 20.6851 15.875 20.721C15.875 20.7843 15.9189 20.8743 15.9944 20.9659C16.0558 21.0403 16.1341 21.2748 16.1341 21.3843C16.1341 21.5037 16.225 21.6605 16.3387 21.737C16.427 21.7966 16.4349 21.8143 16.4378 21.9594C16.4431 22.2212 16.45 22.23 16.7948 22.4128C16.8942 22.4656 16.937 22.4744 16.9857 22.4522C17.0284 22.4328 17.1151 22.4349 17.2569 22.4587C17.4771 22.4958 17.5098 22.5191 17.6885 22.766C17.7584 22.8625 17.8121 22.9162 18.0718 23.1496C18.252 23.3116 18.2966 23.3402 18.3684 23.3402C18.4038 23.3402 18.4595 23.3742 18.4922 23.4158C18.5539 23.4942 18.752 23.6122 18.9263 23.6745C19.0008 23.7011 19.2486 23.708 19.8763 23.7009C20.3433 23.6956 20.745 23.6861 20.7688 23.6798ZM28.7581 15.7444C28.749 15.7297 28.7547 15.7095 28.7708 15.6995C28.7869 15.6896 28.8001 15.7016 28.8001 15.7263C28.8001 15.7769 28.7828 15.7843 28.7581 15.7444ZM7.62518 19.1815C7.67118 19.142 7.71992 19.1096 7.73349 19.1096C7.74706 19.1096 7.78967 19.0384 7.82818 18.9513C7.86669 18.8643 7.90624 18.7931 7.91607 18.7931C7.9394 18.7931 8.05548 18.8543 8.07433 18.8765C8.08238 18.886 8.12275 18.9235 8.16401 18.9599C8.23708 19.0243 8.24173 19.0248 8.34084 18.9775C8.43898 18.9307 8.44573 18.9312 8.52907 18.9905C8.57662 19.0244 8.62176 19.0521 8.62939 19.0521C8.637 19.0521 8.65197 18.9941 8.6626 18.9232C8.67322 18.8524 8.69412 18.7869 8.70905 18.7776C8.72396 18.7684 8.73617 18.7404 8.73617 18.7154C8.73617 18.6904 8.78869 18.613 8.8529 18.5434C8.9373 18.4518 8.96468 18.4011 8.95172 18.3603C8.9395 18.3218 8.94714 18.3038 8.97571 18.3038C8.99876 18.3038 9.01583 18.2811 9.01363 18.2534C9.01045 18.2131 9.03255 18.2032 9.12478 18.2037C9.18811 18.2041 9.28619 18.214 9.34273 18.2257L9.44553 18.2469L9.48365 18.0667C9.50462 17.9676 9.52447 17.7689 9.52776 17.6251C9.53452 17.3319 9.59678 17.1175 9.70441 17.0173L9.77247 16.9539V12.5081V8.06226L9.7077 8.05306C9.67208 8.04802 9.63105 8.01684 9.61654 7.9838C9.59252 7.92915 9.4128 7.8568 9.30109 7.8568C9.27977 7.8568 9.2314 7.91508 9.1936 7.98631C9.15581 8.05754 9.10543 8.11749 9.08165 8.11953C8.93003 8.13255 8.741 8.10266 8.67416 8.05508C8.63213 8.02517 8.57019 8.00069 8.53652 8.00069C8.50285 8.00069 8.46783 7.98126 8.45872 7.95752C8.44961 7.93378 8.42559 7.91435 8.40536 7.91435C8.33844 7.91435 8.26626 7.77066 8.29809 7.70081C8.32951 7.63187 8.30073 7.57781 8.20296 7.52226C8.14421 7.48888 8.13548 7.40238 8.17526 7.24777C8.19143 7.18492 8.18109 7.16209 8.11786 7.12066C8.05074 7.07668 7.9871 7.06824 7.8366 7.08335C7.81681 7.08537 7.765 7.07745 7.72146 7.06584C7.61022 7.03616 7.61484 7.11783 7.72821 7.18477C7.854 7.25905 7.91398 7.4006 7.87055 7.52066C7.8233 7.65132 7.76083 7.72056 7.63797 7.77847C7.51391 7.83694 7.40926 7.842 7.35747 7.79203C7.32743 7.76305 7.31092 7.76984 7.27255 7.82694C7.20076 7.93378 7.14886 7.97068 6.96559 8.04515C6.87349 8.08257 6.79054 8.12349 6.78124 8.13608C6.73964 8.19243 6.62491 8.23101 6.51166 8.22673C6.35024 8.2206 6.26549 8.26931 6.21229 8.39872C6.11655 8.63158 5.96157 8.71166 5.75708 8.63393C5.70061 8.61247 5.6601 8.61637 5.59608 8.64947C5.5394 8.67878 5.47672 8.68735 5.41028 8.67489C5.35434 8.6644 5.29424 8.66915 5.27434 8.68558C5.25472 8.7018 5.20056 8.71946 5.15398 8.72482C5.08662 8.73258 5.06454 8.75302 5.04607 8.82479C5.01624 8.9407 4.85741 9.17496 4.76052 9.24595C4.68625 9.30037 4.68396 9.3003 4.56736 9.24083C4.40567 9.15836 4.38163 9.16367 4.32499 9.29438C4.29788 9.35693 4.25043 9.42164 4.21954 9.43817C4.1611 9.46944 4.07269 9.45081 4.03883 9.40009C4.02805 9.38392 4.01064 9.40889 4.00015 9.45555C3.97412 9.57134 3.90213 9.73114 3.84815 9.79294C3.80981 9.83683 3.77377 9.84134 3.59274 9.82494C3.38646 9.80625 3.38198 9.80726 3.38198 9.87204C3.38198 9.90845 3.34941 9.99379 3.30961 10.0617C3.24022 10.1801 3.23016 10.186 3.06493 10.2046C2.97015 10.2154 2.89261 10.2354 2.89261 10.2492C2.89261 10.2914 2.82449 10.276 2.74868 10.2167C2.64651 10.1368 2.63762 10.1434 2.65271 10.2882C2.66443 10.4007 2.65613 10.4266 2.58808 10.4897C2.54513 10.5295 2.48841 10.5621 2.46205 10.5621C2.43568 10.5621 2.38899 10.5848 2.3583 10.6126C2.2895 10.675 2.15857 10.7347 2.09075 10.7347C2.06285 10.7347 2.01489 10.7534 1.98416 10.7761C1.93316 10.8139 1.93234 10.8208 1.97482 10.8553C2.01602 10.8887 2.04292 10.9335 2.15018 11.1475C2.16479 11.1766 2.18413 11.2885 2.19315 11.3961C2.20839 11.5779 2.20395 11.5991 2.13027 11.6956C2.05712 11.7915 2.03939 11.7996 1.90146 11.7996C1.77283 11.7996 1.74035 11.7875 1.66902 11.713C1.62341 11.6655 1.57673 11.6363 1.56528 11.6483C1.51678 11.699 1.39573 11.9566 1.39573 12.0091C1.39573 12.0601 1.4927 12.1734 1.53687 12.1739C1.56298 12.1743 1.62602 12.3219 1.62602 12.3828C1.62602 12.4123 1.66603 12.4701 1.71494 12.5112C1.79769 12.5809 1.8025 12.5951 1.78424 12.7169C1.77345 12.7888 1.72048 12.9353 1.66653 13.0424C1.61258 13.1495 1.56845 13.2633 1.56845 13.2954C1.56845 13.3274 1.5555 13.3537 1.53966 13.3537C1.52383 13.3537 1.51087 13.374 1.51087 13.3989C1.51087 13.4238 1.49144 13.4635 1.46769 13.4873C1.39951 13.5554 1.41642 13.5988 1.52835 13.6427C1.66263 13.6954 1.74116 13.7972 1.74116 13.9188C1.74116 13.972 1.75162 14.0156 1.7644 14.0156C1.7967 14.0156 1.88509 14.2229 1.88509 14.2987C1.88509 14.3329 1.89804 14.361 1.91388 14.361C1.92971 14.361 1.93943 14.3731 1.93547 14.3879C1.93151 14.4027 1.97262 14.4523 2.02683 14.498C2.11499 14.5724 2.12671 14.5996 2.13798 14.7554C2.15024 14.9249 2.1544 14.9325 2.29113 15.0368C2.36843 15.0957 2.45942 15.1933 2.49333 15.2536C2.55489 15.3631 2.55521 15.3632 2.70684 15.3476C2.88413 15.3293 2.97323 15.3471 3.05945 15.4178C3.09373 15.4459 3.17896 15.5115 3.24886 15.5636C3.34141 15.6324 3.38096 15.6848 3.39436 15.7562C3.40586 15.8175 3.43368 15.8609 3.46863 15.872C3.54475 15.8961 3.72741 16.077 3.72741 16.1282C3.72741 16.151 3.75851 16.2066 3.79653 16.2518C3.83455 16.2969 3.87017 16.3659 3.87569 16.4051C3.88385 16.463 3.90448 16.478 3.98639 16.4858C4.04722 16.4915 4.1329 16.5329 4.20297 16.5903C4.31467 16.6818 4.3304 16.6859 4.63485 16.7012C5.05614 16.7224 5.29929 16.7806 5.37877 16.8794C5.49703 17.0263 5.55391 17.4835 5.46805 17.597C5.41974 17.6608 5.4531 17.6982 5.5591 17.6989C5.62298 17.6994 5.80001 17.8587 5.80001 17.9157C5.80001 17.9337 5.83323 17.9796 5.87383 18.0177C5.91444 18.0558 5.96744 18.1287 5.99161 18.1796C6.02014 18.2398 6.06849 18.2831 6.12945 18.3032C6.18108 18.3203 6.25438 18.3676 6.29233 18.4084C6.33028 18.4493 6.44215 18.5406 6.54092 18.6114C6.63969 18.6821 6.74788 18.7785 6.78134 18.8254C6.83468 18.9003 6.83779 18.9214 6.80658 18.9967C6.787 19.044 6.77946 19.0911 6.78981 19.1015C6.80016 19.1118 6.92172 19.1255 7.05995 19.1319C7.22431 19.1395 7.34614 19.1612 7.41203 19.1947C7.46744 19.2229 7.51926 19.2476 7.52718 19.2497C7.53509 19.2517 7.57918 19.2211 7.62518 19.1815ZM25.4609 15.541C25.4609 15.5012 25.4417 15.4834 25.3989 15.4834C25.3387 15.4834 25.3384 15.4851 25.3889 15.541C25.4176 15.5726 25.4455 15.5985 25.451 15.5985C25.4564 15.5985 25.4609 15.5726 25.4609 15.541ZM25.272 15.4459C25.2641 15.4253 25.2298 15.3897 25.1958 15.3668C25.1618 15.3439 25.0262 15.2183 24.8944 15.0878C24.7627 14.9573 24.6549 14.8549 24.6549 14.8604C24.6549 14.9148 24.7671 15.0681 24.8436 15.1181C24.8966 15.1528 24.947 15.2088 24.9554 15.2424C24.9702 15.3012 25.0476 15.3649 25.2018 15.4455C25.2904 15.4917 25.2896 15.4918 25.272 15.4459ZM24.5843 14.5847C24.5294 14.4532 24.4934 14.4302 24.4548 14.5022C24.4135 14.5794 24.4127 14.5772 24.5182 14.6761C24.6261 14.7774 24.6507 14.7435 24.5843 14.5847Z" fill="black"/>
</svg>
