<svg width="35" height="13" viewBox="0 0 35 13" fill="none" xmlns="http://www.w3.org/2000/svg">
<path d="M19.191 11.8462L19.161 11.7632C19.1426 11.7126 17.5366 7.27771 17.0717 6.03455L14.9468 11.8462H12.7175L16.7378 2.22159L17.401 2.22138L21.4193 11.8469L19.191 11.8462Z" fill="black"/>
<path d="M7.6326 8.66417C8.01512 8.07126 8.05661 7.39187 8.05661 7.12735V0.000392914H6.00239L6.00105 7.15028C6.00135 7.27779 6.00239 7.66611 5.78986 7.87948C5.68696 7.98271 5.54782 8.03282 5.36492 8.03282C4.75697 8.03282 4.72084 7.455 4.71878 7.3896L4.71568 7.26684H2.66465V7.3928C2.66465 7.71136 2.72855 8.32463 3.15679 8.85533C3.62168 9.43149 4.36474 9.72361 5.36492 9.72361C6.41587 9.7235 7.17886 9.36712 7.6326 8.66417ZM10.7215 7.3927C10.7204 6.48309 10.7204 0.126352 10.7204 0.126352V0.000392914H8.66632V7.39352C8.66632 7.40096 8.66002 8.13264 8.24942 8.84954C7.70578 9.79883 6.74029 10.2801 5.37947 10.2801H5.36481C2.43737 10.2726 2.07466 8.25643 2.05454 7.38991L2.05175 7.26694H0L0.000103217 7.39301C0.000206434 7.44033 0.0647174 12.1296 5.34438 12.1296C7.04158 12.1296 8.38288 11.6478 9.33104 10.6974C10.4302 9.59599 10.7222 8.10185 10.7215 7.3927Z" fill="black"/>
<path d="M29.4272 12.1294C25.6794 12.1294 23.0613 9.69418 23.0602 6.20732C23.0597 4.25852 23.7257 2.63966 24.9862 1.52618C26.1001 0.541964 27.6319 0 29.2996 0C34.0323 0 34.9999 3.62346 34.9999 4.59372V4.71968H32.9452V4.59372C32.9456 3.88933 32.0486 1.84123 29.299 1.82656L29.2655 1.82645C28.0412 1.82645 27.0057 2.21673 26.2713 2.95533C25.4898 3.74094 25.0626 4.89576 25.0683 6.2067C25.0771 8.17502 26.2269 10.2788 29.4272 10.2798C31.0666 10.2798 32.6121 9.55313 32.9457 9.38605V6.08146L35 6.08198L34.9993 10.4563L34.9475 10.4941C34.9177 10.5158 34.2067 11.0289 33.2107 11.4066C32.3177 11.7456 31.3053 12.1296 29.4378 12.1296H29.4272V12.1294Z" fill="black"/>
<path d="M30.2821 6.08146V7.78062C30.0375 7.9445 29.7503 8.02819 29.4268 8.02933H29.4198C28.9854 8.02933 27.6102 7.89428 27.602 6.2067C27.5945 4.89958 28.2295 4.11531 29.3006 4.109H29.3122C30.1394 4.109 30.2804 4.60364 30.2858 4.62369L30.3093 4.71968H32.3357L32.3358 4.59393C32.3361 4.30936 32.1648 3.80511 31.6811 3.32029C31.2644 2.90263 30.5129 2.40469 29.2998 2.40469C27.1687 2.40469 25.6801 3.96827 25.6803 6.2128C25.733 7.44665 26.1857 8.38427 27.0258 8.9997C27.8845 9.62877 28.8924 9.72373 29.4211 9.72373H29.4274C31.2616 9.72125 32.2413 9.05839 32.2822 9.03028L32.3365 8.99267V6.08095L30.2821 6.08146Z" fill="black"/>
<path d="M15.1204 0L10 11.9992H12.1447L16.2958 1.71545H17.7044L21.8554 12H24L18.8799 0H15.1204Z" fill="black"/>
</svg>
