<svg width="35" height="13" viewBox="0 0 35 13" fill="none" xmlns="http://www.w3.org/2000/svg">
<g clip-path="url(#clip0_613_39)">
<path fill-rule="evenodd" clip-rule="evenodd" d="M14.876 12.8706L24.938 0.176075L35 12.8706H14.876Z" fill="black"/>
<path fill-rule="evenodd" clip-rule="evenodd" d="M6.27591 12.8706L14.1336 1.84356L21.9914 12.8706H6.27591Z" fill="black"/>
<path fill-rule="evenodd" clip-rule="evenodd" d="M0 12.8706L5.28798 6.98877L10.576 12.8706H0Z" fill="black"/>
<path fill-rule="evenodd" clip-rule="evenodd" d="M11.4896 6.43484L14.1336 2.75725L16.7776 6.43484H11.4896Z" fill="white"/>
<path fill-rule="evenodd" clip-rule="evenodd" d="M20.5923 6.38345L24.9237 0.861341L29.2552 6.38345H20.5923Z" fill="white"/>
<path fill-rule="evenodd" clip-rule="evenodd" d="M10.6216 7.24003L12.8488 5.40694L15.0759 7.24003H10.6216Z" fill="black"/>
<path fill-rule="evenodd" clip-rule="evenodd" d="M13.18 7.17151L15.4071 5.33842L17.6342 7.17151H13.18Z" fill="black"/>
<path fill-rule="evenodd" clip-rule="evenodd" d="M19.867 7.08014L22.0942 5.24705L24.3213 7.08014H19.867Z" fill="black"/>
<path fill-rule="evenodd" clip-rule="evenodd" d="M25.6575 7.1144L27.8847 5.28131L30.1118 7.1144H25.6575Z" fill="#010200"/>
<path fill-rule="evenodd" clip-rule="evenodd" d="M22.8536 6.98877L25.0808 5.14997L27.3079 6.98877H22.8536Z" fill="black"/>
<path d="M0.354055 0.176075H0V12.8706H0.354055V0.176075Z" fill="black"/>
<path fill-rule="evenodd" clip-rule="evenodd" d="M9.23397 4.84255L0.553925 5.96658V0.347393H9.23397V4.84255Z" fill="black"/>
<mask id="mask0_613_39" style="mask-type:luminance" maskUnits="userSpaceOnUse" x="-9" y="-15" width="53" height="30">
<path d="M-8.28601 -14.3402H43.4516V14.7837H-8.28601" fill="white"/>
</mask>
<g mask="url(#mask0_613_39)">
<path d="M4.34932 2.1036L2.32117 2.35299L2.50771 3.87009L4.53586 3.6207L4.34932 2.1036Z" fill="white"/>
</g>
<mask id="mask1_613_39" style="mask-type:luminance" maskUnits="userSpaceOnUse" x="-9" y="-15" width="53" height="30">
<path d="M-8.28601 -14.3402H43.4516V14.7837H-8.28601" fill="white"/>
</mask>
<g mask="url(#mask1_613_39)">
<path fill-rule="evenodd" clip-rule="evenodd" d="M4.82162 3.70758L6.84982 3.45774L7.03637 4.97485L5.00817 5.22421L4.82162 3.70758Z" fill="white"/>
</g>
<mask id="mask2_613_39" style="mask-type:luminance" maskUnits="userSpaceOnUse" x="-9" y="-15" width="53" height="30">
<path d="M-8.28601 -14.3402H43.4516V14.7837H-8.28601" fill="white"/>
</mask>
<g mask="url(#mask2_613_39)">
<path fill-rule="evenodd" clip-rule="evenodd" d="M4.35953 0.249839L6.38773 1.90735e-06L6.57427 1.51711L4.54607 1.76647L4.35953 0.249839Z" fill="white"/>
</g>
<mask id="mask3_613_39" style="mask-type:luminance" maskUnits="userSpaceOnUse" x="-9" y="-15" width="53" height="30">
<path d="M-8.28601 -14.3402H43.4516V14.7837H-8.28601" fill="white"/>
</mask>
<g mask="url(#mask3_613_39)">
<path fill-rule="evenodd" clip-rule="evenodd" d="M4.59225 2.04105L6.62045 1.79169L6.807 3.30832L4.7788 3.55815L4.59225 2.04105Z" fill="white"/>
</g>
<mask id="mask4_613_39" style="mask-type:luminance" maskUnits="userSpaceOnUse" x="-9" y="-15" width="53" height="30">
<path d="M-8.28601 -14.3402H43.4516V14.7837H-8.28601" fill="white"/>
</mask>
<g mask="url(#mask4_613_39)">
<path fill-rule="evenodd" clip-rule="evenodd" d="M6.88647 1.77218L8.91467 1.52234L9.10122 3.03944L7.07302 3.2888L6.88647 1.77218Z" fill="white"/>
</g>
<mask id="mask5_613_39" style="mask-type:luminance" maskUnits="userSpaceOnUse" x="-9" y="-15" width="53" height="30">
<path d="M-8.28601 -14.3402H43.4516V14.7837H-8.28601" fill="white"/>
</mask>
<g mask="url(#mask5_613_39)">
<path d="M5.67041 1.45023L5.45181 1.47673L5.5216 2.05244L5.7402 2.02594L5.67041 1.45023Z" fill="white"/>
</g>
<mask id="mask6_613_39" style="mask-type:luminance" maskUnits="userSpaceOnUse" x="-9" y="-15" width="53" height="30">
<path d="M-8.28601 -14.3402H43.4516V14.7837H-8.28601" fill="white"/>
</mask>
<g mask="url(#mask6_613_39)">
<path fill-rule="evenodd" clip-rule="evenodd" d="M5.7001 3.18316L5.91901 3.15746L5.98801 3.73471L5.76911 3.76088L5.7001 3.18316Z" fill="white"/>
</g>
<mask id="mask7_613_39" style="mask-type:luminance" maskUnits="userSpaceOnUse" x="-9" y="-15" width="53" height="30">
<path d="M-8.28601 -14.3402H43.4516V14.7837H-8.28601" fill="white"/>
</mask>
<g mask="url(#mask7_613_39)">
<path fill-rule="evenodd" clip-rule="evenodd" d="M4.31719 2.97711L4.28531 2.76058L4.86541 2.67445L4.89777 2.8905L4.31719 2.97711Z" fill="white"/>
</g>
<mask id="mask8_613_39" style="mask-type:luminance" maskUnits="userSpaceOnUse" x="-9" y="-15" width="53" height="30">
<path d="M-8.28601 -14.3402H43.4516V14.7837H-8.28601" fill="white"/>
</mask>
<g mask="url(#mask8_613_39)">
<path fill-rule="evenodd" clip-rule="evenodd" d="M6.58857 2.70776L6.55621 2.49171L7.13679 2.4051L7.16867 2.62162L6.58857 2.70776Z" fill="white"/>
</g>
<mask id="mask9_613_39" style="mask-type:luminance" maskUnits="userSpaceOnUse" x="-9" y="-15" width="53" height="30">
<path d="M43.4516 -14.245H-8.28601V14.8789H43.4516V-14.245Z" fill="white"/>
</mask>
<g mask="url(#mask9_613_39)">
<path d="M15.1192 11.7461C15.0901 11.8555 15.0433 11.9593 14.9807 12.0536C14.9139 12.1578 14.8348 12.2537 14.7452 12.3391C14.6585 12.4225 14.5614 12.4943 14.4563 12.5528C14.3656 12.6059 14.263 12.635 14.1579 12.6375H8.66055L8.93085 11.7457H12.8431C12.9416 11.7461 13.0379 11.7164 13.1191 11.6605C13.2016 11.6053 13.2739 11.5362 13.3327 11.4563C13.3683 11.4072 13.397 11.3534 13.4179 11.2964C13.445 11.227 13.4688 11.157 13.4898 11.0856C13.5107 11.006 13.5317 10.9202 13.5526 10.8282H10.338C10.1941 10.8282 10.0506 10.8135 9.90974 10.7844C9.78384 10.7606 9.66345 10.7137 9.55473 10.6459C9.4646 10.591 9.3958 10.5071 9.35962 10.408C9.32631 10.3128 9.34487 10.1967 9.41625 10.0625L9.73033 9.01554C9.76259 8.87914 9.82797 8.7528 9.92068 8.64768C10.0087 8.55112 10.1129 8.47061 10.2286 8.40974C10.345 8.34849 10.47 8.30502 10.5993 8.28078C10.7247 8.25624 10.8522 8.24365 10.98 8.24319H16.1671L15.8844 9.18543L12.4167 9.19162C12.2154 9.18353 12.0617 9.20208 11.9546 9.24824C11.9002 9.27211 11.8511 9.30664 11.8102 9.3498C11.7693 9.39295 11.7375 9.44386 11.7167 9.49951L11.5786 9.95207H14.7827C14.884 9.95183 14.985 9.96123 15.0845 9.98015C15.1732 9.99604 15.2576 10.0302 15.3324 10.0806C15.3996 10.1265 15.452 10.191 15.4832 10.2662C15.515 10.3575 15.5162 10.4567 15.4866 10.5488L15.1192 11.7461Z" fill="white"/>
<path d="M15.4128 12.6379L16.7762 8.24033H21.8162C21.8536 8.24126 21.8904 8.25024 21.924 8.26666C21.9575 8.28309 21.9872 8.30657 22.0109 8.33551C22.0719 8.40593 22.1202 8.48645 22.1536 8.57345C22.1914 8.66619 22.2178 8.76319 22.2322 8.86231C22.2471 8.94758 22.2459 9.03489 22.2288 9.11976C22.2157 9.17196 22.1998 9.22342 22.1812 9.27394L22.1027 9.49665C22.0732 9.58041 22.0409 9.67083 22.0052 9.76695C21.9695 9.86308 21.9352 9.95731 21.9019 10.0558C21.822 10.282 21.7319 10.525 21.6316 10.7849C21.6253 10.8316 21.6031 10.8748 21.5688 10.9072C21.5241 10.9579 21.4747 11.0043 21.4213 11.0456C21.3648 11.0893 21.3048 11.1282 21.2419 11.1618C21.1942 11.1905 21.1404 11.2076 21.0848 11.2117H20.7113C20.5457 11.2117 20.3648 11.2117 20.1678 11.2089C19.9708 11.206 19.769 11.2055 19.5615 11.2055H18.4527L18.7792 10.2757H19.9665C19.9911 10.2767 20.0156 10.2725 20.0384 10.2633C20.0612 10.2541 20.0818 10.2401 20.0988 10.2224C20.1346 10.1831 20.1643 10.1387 20.1868 10.0906C20.2139 10.0325 20.2369 9.97276 20.2558 9.91162C20.2768 9.84452 20.2996 9.77552 20.3248 9.70414C20.3712 9.57438 20.367 9.46334 20.3125 9.37102C20.2882 9.32763 20.2549 9.29002 20.2147 9.26077C20.1745 9.23152 20.1285 9.21134 20.0798 9.20161C20.0256 9.19533 19.9711 9.19215 19.9165 9.19209C19.8328 9.19209 19.7352 9.18876 19.6243 9.18876H18.5493L17.3868 12.6379H15.4128Z" fill="white"/>
<path d="M22.8151 8.24033H28.3567L28.0236 9.33961H24.4736L23.8578 11.3859C23.8509 11.428 23.8586 11.4711 23.8797 11.5082C23.903 11.5558 23.9311 11.5805 23.9648 11.5805H24.1657C24.2789 11.5805 24.4203 11.5796 24.5897 11.5777C24.7591 11.5758 24.9486 11.5737 25.1584 11.5715C25.3677 11.5693 25.5793 11.5682 25.7932 11.5682C26.007 11.5682 26.2143 11.567 26.4152 11.5648C26.616 11.5629 26.7928 11.562 26.9458 11.562C27.0987 11.562 27.2191 11.5629 27.307 11.5648C27.395 11.5648 27.4326 11.5701 27.4202 11.5743L27.1061 12.636H22.463C22.4076 12.6354 22.3527 12.6269 22.2997 12.6108C22.24 12.5937 22.1821 12.5706 22.127 12.5418C22.0723 12.5139 22.0208 12.4803 21.9733 12.4414C21.9303 12.4069 21.8921 12.3668 21.86 12.322C21.7985 12.2242 21.746 12.1212 21.703 12.0141C21.6575 11.9111 21.6507 11.7952 21.684 11.6876L22.8151 8.24033Z" fill="white"/>
<path d="M28.7455 8.24033H30.7062L29.6316 11.5953H33.1436L32.9057 12.6379H28.4881C28.3497 12.6359 28.2138 12.6003 28.0921 12.5342C27.9683 12.4719 27.8523 12.395 27.7467 12.3053C27.7062 12.2625 27.679 12.209 27.6681 12.1511C27.6484 12.0717 27.6348 11.9909 27.6272 11.9094C27.6192 11.8206 27.6171 11.7314 27.621 11.6424C27.6232 11.5671 27.6337 11.4922 27.6524 11.4192L28.7455 8.24033Z" fill="white"/>
</g>
</g>
<defs>
<clipPath id="clip0_613_39">
<rect width="35" height="12.8706" fill="white"/>
</clipPath>
</defs>
</svg>
