<svg width="35" height="15" viewBox="0 0 35 15" fill="none" xmlns="http://www.w3.org/2000/svg">
<g clip-path="url(#clip0_672_7)">
<path d="M0.0155029 11.0089H34.9962V-0.00122415H0.0155029V11.0089Z" fill="black"/>
<path d="M23.1961 3.74138C23.1961 3.49271 23.4158 3.34236 23.7308 3.34236C24.06 3.34236 24.3655 3.55487 24.4993 3.87473H24.5757L24.5129 3.39921C24.3487 3.32323 23.9971 3.21249 23.6877 3.21249C23.2009 3.21249 22.8476 3.53311 22.8476 3.90237C22.8476 4.67968 24.3702 4.85289 24.3702 5.49228C24.3702 5.84326 24.0317 5.99331 23.712 5.99331C23.3388 5.99331 22.9965 5.76358 22.8948 5.32555H22.8109L22.9079 5.98724C23.1546 6.05686 23.4908 6.13635 23.7548 6.13635C24.3131 6.13635 24.7195 5.77133 24.7195 5.33586C24.7195 4.51815 23.1961 4.37204 23.1961 3.74138ZM24.7859 3.26956H27.0341L27.0988 3.87473H27.0207C26.9557 3.48741 26.8755 3.43746 26.7018 3.43746H26.0986V5.63659C26.0986 5.87408 26.1771 5.95803 26.4413 5.95803H26.541V6.05049H25.2792V5.95803H25.3784C25.6425 5.95803 25.7211 5.87408 25.7211 5.63659V3.43746H25.1183C24.9447 3.43746 24.8673 3.48528 24.8016 3.87527H24.7235L24.7859 3.26956ZM22.4607 3.379C22.3926 2.93588 22.2584 2.90509 22.0712 2.90509H20.8882V4.21211H21.8144C22.0051 4.21211 22.0953 4.18746 22.1215 3.87633H22.2221V4.77617H22.1215C22.0791 4.39543 21.9785 4.4188 21.761 4.4188H20.8882V5.56219C20.8882 5.80906 21.0004 5.85707 21.1959 5.85707H21.9894C22.3537 5.85707 22.4737 5.77791 22.6011 5.32555H22.6977L22.6148 6.04995H19.9954V5.94793C20.4194 5.9373 20.4489 5.87813 20.4489 5.55104L20.451 3.21007C20.451 2.88224 20.4211 2.82326 19.9975 2.81317V2.71094L22.5162 2.71222L22.5576 3.379H22.4607ZM25.0329 8.76423H24.9537C24.8965 9.02182 24.8227 9.08983 24.614 9.09418H23.6202C24.1443 8.62715 24.9505 8.01763 24.9505 7.37239C24.9505 6.94415 24.6288 6.62196 24.1899 6.62196C23.7377 6.62196 23.3947 6.95267 23.345 7.43616H23.4115C23.5075 7.09238 23.7716 6.86339 24.0683 6.86339C24.3823 6.86339 24.6208 7.11417 24.6208 7.43224C24.6208 8.19306 23.3984 9.12925 23.2905 9.23605V9.35718H24.9533L24.9537 9.35773V9.35718H24.9547L24.9898 9.09418H24.9894L25.0329 8.76423ZM20.0343 9.35718V9.25465C20.4315 9.25465 20.4504 9.18558 20.4504 8.97623H20.451V6.98985C20.3095 7.10939 20.0625 7.26719 19.8979 7.34051L19.8629 7.28047C20.1192 7.11417 20.4865 6.7938 20.5924 6.64842H20.7471V8.91831C20.7523 9.19249 20.8037 9.24508 21.2 9.25465V9.35718H20.0343ZM26.2396 7.06295L25.2945 8.37691H26.2396V7.06295ZM25.0775 8.59051V8.49168L26.4119 6.64842H26.5362V8.37691H26.8816V8.59051H26.5362V9.35718H26.2396V8.59051H25.0775ZM22.2232 6.72982C21.9062 6.72982 21.6346 6.91227 21.6346 7.1809C21.6346 7.41597 21.7645 7.5778 22.3626 7.81181C22.62 7.66303 22.8024 7.47579 22.8024 7.23246C22.8024 6.92481 22.545 6.72982 22.2232 6.72982ZM22.1178 8.0342C21.8045 8.192 21.6163 8.41464 21.6163 8.69198C21.6163 9.05476 21.8966 9.29279 22.2462 9.29279C22.5912 9.29279 22.8759 9.06763 22.8759 8.7345C22.8759 8.44864 22.651 8.26001 22.1178 8.0342ZM22.4491 7.86866C22.9319 8.06864 23.1474 8.28659 23.1474 8.61494C23.1474 9.0586 22.7517 9.40022 22.2416 9.40022C21.7446 9.40022 21.3494 9.08877 21.3494 8.70049C21.3494 8.40136 21.5789 8.158 22.0257 7.99138C21.5932 7.81181 21.3862 7.60351 21.3862 7.31341C21.3862 6.93779 21.7683 6.62196 22.228 6.62196C22.6877 6.62196 23.0557 6.89475 23.0557 7.23637C23.0557 7.50947 22.8538 7.71883 22.4491 7.86866ZM29.4879 3.379L29.4461 2.71222L26.9278 2.71094V2.81317C27.3513 2.82326 27.3808 2.88224 27.3808 3.21007L27.3792 5.55104C27.3792 5.87813 27.3492 5.9373 26.9257 5.94793V6.04995H29.5446L29.628 5.32555H29.5314C29.4037 5.77791 29.2845 5.85707 28.9198 5.85707H28.1267C27.93 5.85707 27.8183 5.80906 27.8183 5.56219V4.4188H28.6916C28.9088 4.4188 29.0099 4.39543 29.0518 4.77617H29.1524V3.87633H29.0518C29.025 4.18746 28.9351 4.21211 28.7448 4.21211H27.8183V2.90509H29.0011C29.1887 2.90509 29.3229 2.93588 29.391 3.379H29.4879ZM7.08493 4.49957L7.69196 3.04217L8.29319 4.49957H7.08493ZM11.8923 2.71222V2.81423C12.3156 2.82484 12.3452 2.88382 12.3452 3.21143V5.34755L10.1329 2.71222H9.34072V2.81423C9.52588 2.81932 9.6244 2.86205 9.74604 2.94812V5.58877C9.74604 5.79258 9.66898 5.93784 9.49129 5.93784C9.34963 5.93784 9.28423 5.77952 9.20717 5.61001L7.97481 2.71222H7.59896L6.46147 5.41714C6.25809 5.86611 6.2214 5.93869 6.11184 5.93869C5.97438 5.93869 5.92564 5.81458 5.90269 5.45435L5.74091 3.09263C5.74091 2.8833 5.8035 2.81369 6.20095 2.81369V2.71167H5.30793L4.14392 5.42247L2.97406 2.71222H2.04613V2.8139C2.44346 2.8139 2.50647 2.8833 2.50647 3.09296L2.36546 5.3741C2.33873 5.86241 2.29124 5.94848 1.90417 5.94848V6.04995H3.00602V5.94848C2.7674 5.9373 2.56643 5.87886 2.58195 5.60522L2.72494 3.18985H2.73595L3.97985 6.04995H4.10146L5.30951 3.18985H5.32019L5.47357 5.59407C5.49507 5.87886 5.251 5.94848 5.00256 5.94848V6.04995H7.04668V5.94848H7.0276C6.73635 5.94848 6.59869 5.89481 6.59869 5.74976C6.59869 5.67462 6.66788 5.51385 6.7046 5.41132L6.99867 4.70571H8.37843L8.72532 5.54573C8.74641 5.5994 8.7835 5.68014 8.7835 5.7657C8.7835 5.91605 8.6725 5.94848 8.37057 5.94848H8.29843V6.04995H10.4534V5.94848C10.0028 5.94848 9.98444 5.86804 9.98444 5.48145V3.17925L12.4458 6.08768H12.5833V3.09296C12.5833 2.88382 12.6025 2.81423 13.0002 2.81423V2.71222H11.8923ZM19.9173 5.94793V6.04943H18.6071V5.94793C19.0067 5.93784 19.0556 5.88417 19.0598 5.60289V4.4188H17.1153V5.55052L17.116 5.5503C17.116 5.87759 17.1459 5.93678 17.5692 5.94742V6.04943H16.2593V5.94742C16.6563 5.94742 16.6752 5.87759 16.6752 5.66847H16.6758V3.09296L16.6748 3.09263C16.6748 2.8833 16.6559 2.81369 16.2588 2.81369V2.71167H17.5689V2.81369C17.1455 2.82432 17.1156 2.8833 17.1156 3.21058H17.1146L17.1134 4.21211H19.0581L19.0592 3.16436C19.0556 2.87851 19.0084 2.82378 18.6063 2.8139V2.71222H19.9162V2.8139C19.5195 2.8139 19.5 2.8833 19.5 3.09296L19.4987 3.09317V5.66847L19.5009 5.66877C19.5009 5.8778 19.5197 5.94793 19.9173 5.94793ZM14.8018 2.63145C15.3575 2.63145 15.7658 2.82059 16.0129 2.92791L16.0541 3.59238H15.9528C15.7786 3.09296 15.4109 2.76586 14.8333 2.76586C13.9489 2.76586 13.5081 3.45925 13.5081 4.3611C13.5081 5.33267 14.0867 5.98885 14.8919 5.98885C15.133 5.98885 15.7361 5.82625 16.0966 5.17647H16.1966L15.9435 5.80629C15.6279 5.95909 15.3736 6.13635 14.7489 6.13635C13.6737 6.13635 13.0321 5.41714 13.0321 4.4241C13.0321 3.38273 13.6947 2.63145 14.8018 2.63145ZM30.952 4.53515C30.8299 4.53515 30.7496 4.54048 30.6224 4.52454V2.79935C30.7182 2.78849 30.788 2.78849 30.8881 2.78849C31.7085 2.78849 31.9321 3.15427 31.9321 3.65637C31.9321 4.30384 31.5432 4.53515 30.952 4.53515ZM32.7515 5.42832L32.3312 5.02027C32.0805 4.76681 31.9211 4.65503 31.7241 4.49818C32.1613 4.36864 32.4329 4.02859 32.4329 3.62416C32.4329 3.07351 31.9909 2.66333 31.0059 2.66333C30.6594 2.66333 30.5531 2.66864 30.3349 2.67979C30.117 2.69043 29.792 2.71222 29.664 2.71222V2.81475H29.781C30.0896 2.81475 30.1809 2.91145 30.1809 3.24649V5.49951C30.1809 5.86132 30.0687 5.94793 29.7547 5.94793H29.664V6.04995H31.1707V5.94793H31.0486C30.7496 5.94793 30.6224 5.86698 30.6224 5.54306V4.64919C30.7077 4.65503 30.777 4.66001 30.8937 4.66001C31.0338 4.66001 31.1181 4.65503 31.2445 4.64992C31.6503 4.88531 31.9673 5.24712 32.1557 5.42832C32.6409 5.89693 32.7542 6.09331 33.6857 6.04995V5.94793C33.2762 5.92084 33.066 5.74709 32.7515 5.42832ZM30.952 4.53515C30.8299 4.53515 30.7496 4.54048 30.6224 4.52454V2.79935C30.7182 2.78849 30.788 2.78849 30.8881 2.78849C31.7085 2.78849 31.9321 3.15427 31.9321 3.65637C31.9321 4.30384 31.5432 4.53515 30.952 4.53515ZM32.7515 5.42832L32.3312 5.02027C32.0805 4.76681 31.9211 4.65503 31.7241 4.49818C32.1613 4.36864 32.4329 4.02859 32.4329 3.62416C32.4329 3.07351 31.9909 2.66333 31.0059 2.66333C30.6594 2.66333 30.5531 2.66864 30.3349 2.67979C30.117 2.69043 29.792 2.71222 29.664 2.71222V2.81475H29.781C30.0896 2.81475 30.1809 2.91145 30.1809 3.24649V5.49951C30.1809 5.86132 30.0687 5.94793 29.7547 5.94793H29.664V6.04995H31.1707V5.94793H31.0486C30.7496 5.94793 30.6224 5.86698 30.6224 5.54306V4.64919C30.7077 4.65503 30.777 4.66001 30.8937 4.66001C31.0338 4.66001 31.1181 4.65503 31.2445 4.64992C31.6503 4.88531 31.9673 5.24712 32.1557 5.42832C32.6409 5.89693 32.7542 6.09331 33.6857 6.04995V5.94793C33.2762 5.92084 33.066 5.74709 32.7515 5.42832Z" fill="white"/>
<path d="M0.807984 12.4457V14.2458H0.587195V12.4457H0V12.2572H1.39812V12.4457H0.807984Z" fill="black"/>
<path d="M2.58989 14.2458V13.2971C2.58989 13.0673 2.52877 12.9348 2.31952 12.9348C2.06078 12.9348 1.87763 13.1941 1.87763 13.5416V14.2458H1.65967V12.0952H1.87763V12.811C1.87763 12.9082 1.87186 13.0291 1.85446 13.1027L1.86022 13.1056C1.94462 12.8906 2.12473 12.7521 2.37466 12.7521C2.70605 12.7521 2.80774 12.9642 2.80774 13.2236V14.2458H2.58989Z" fill="black"/>
<path d="M4.3338 13.4681H3.36885C3.35427 13.907 3.52569 14.0896 3.8484 14.0896C3.99955 14.0896 4.15935 14.0514 4.26689 13.9954L4.28723 14.1839C4.15358 14.24 3.99075 14.2724 3.81053 14.2724C3.37462 14.2724 3.14209 14.0336 3.14209 13.5211C3.14209 13.0821 3.37462 12.7551 3.77575 12.7551C4.17392 12.7551 4.33965 13.035 4.33965 13.3591C4.33965 13.3856 4.33965 13.4239 4.3338 13.4681ZM3.7641 12.923C3.56072 12.923 3.4152 13.0732 3.38039 13.303H4.11289C4.11866 13.0762 3.98498 12.923 3.7641 12.923Z" fill="black"/>
<path d="M5.9876 14.2724C5.38017 14.2724 5.26379 13.9277 5.26379 13.586V12.2572H5.48763V13.5652C5.48763 13.8511 5.58062 14.0867 6.00499 14.0867C6.36532 14.0867 6.54259 13.9335 6.54259 13.5092V12.2572H6.76065V13.4916C6.76065 14.0012 6.49627 14.2724 5.9876 14.2724Z" fill="black"/>
<path d="M8.11809 14.2458V13.2971C8.11809 13.0673 8.05698 12.9348 7.84772 12.9348C7.5891 12.9348 7.40593 13.1941 7.40593 13.5416V14.2458H7.18787V12.7816H7.403C7.403 12.8758 7.39431 13.0172 7.37984 13.1056L7.38561 13.1086C7.46696 12.8965 7.6501 12.7521 7.90298 12.7521C8.23438 12.7521 8.33607 12.9642 8.33607 13.2236V14.2458H8.11809Z" fill="black"/>
<path d="M8.85931 12.5163C8.7749 12.5163 8.70813 12.4517 8.70813 12.3662C8.70813 12.2837 8.7749 12.2159 8.85931 12.2159C8.94066 12.2159 9.01038 12.2837 9.01038 12.3662C9.01038 12.4517 8.94066 12.5163 8.85931 12.5163ZM8.74879 14.2458V12.7816H8.96677V14.2458H8.74879Z" fill="black"/>
<path d="M9.97532 14.2458H9.74854L9.20224 12.7816H9.44923L9.78651 13.7361C9.81544 13.8274 9.84164 13.9101 9.86786 13.9954H9.87068C9.89395 13.9159 9.92017 13.8274 9.94921 13.748L10.2951 12.7816H10.5335L9.97532 14.2458Z" fill="black"/>
<path d="M11.78 13.4681H10.815C10.8004 13.907 10.9719 14.0896 11.2946 14.0896C11.4457 14.0896 11.6055 14.0514 11.7131 13.9954L11.7334 14.1839C11.5998 14.24 11.4371 14.2724 11.2568 14.2724C10.8208 14.2724 10.5882 14.0336 10.5882 13.5211C10.5882 13.0821 10.8208 12.7551 11.2218 12.7551C11.6201 12.7551 11.7858 13.035 11.7858 13.3591C11.7858 13.3856 11.7858 13.4239 11.78 13.4681ZM11.2103 12.923C11.0068 12.923 10.8614 13.0732 10.8266 13.303H11.559C11.5648 13.0762 11.4311 12.923 11.2103 12.923Z" fill="black"/>
<path d="M12.8233 12.973C12.5036 12.92 12.3525 13.1675 12.3525 13.6595V14.2458H12.1346V12.7816H12.3496C12.3496 12.8789 12.3379 13.0231 12.3176 13.1498L12.3205 13.1527C12.3787 12.9377 12.5298 12.7197 12.8321 12.7551L12.8233 12.973Z" fill="black"/>
<path d="M13.3233 14.2724C13.2157 14.2724 13.1052 14.2605 13.0181 14.2429L13.0239 14.0395C13.1169 14.0661 13.2331 14.0867 13.3465 14.0867C13.5558 14.0867 13.7011 13.9925 13.7011 13.8392C13.7011 13.4857 12.9978 13.7067 12.9978 13.1851C12.9978 12.9406 13.1954 12.7551 13.5617 12.7551C13.6516 12.7551 13.7535 12.7698 13.8436 12.7875L13.8378 12.979C13.7418 12.9466 13.6372 12.9289 13.5383 12.9289C13.3261 12.9289 13.2216 13.0172 13.2216 13.1616C13.2216 13.5122 13.9278 13.3119 13.9278 13.8097C13.9278 14.069 13.7011 14.2724 13.3233 14.2724Z" fill="black"/>
<path d="M14.3726 12.5163C14.2882 12.5163 14.2213 12.4517 14.2213 12.3662C14.2213 12.2837 14.2882 12.2159 14.3726 12.2159C14.454 12.2159 14.5237 12.2837 14.5237 12.3662C14.5237 12.4517 14.454 12.5163 14.3726 12.5163ZM14.2621 14.2458V12.7816H14.48V14.2458H14.2621Z" fill="black"/>
<path d="M15.3812 14.2693C15.0905 14.2693 15.0063 14.1398 15.0063 13.8363V12.9554H14.6923V12.7816H15.0063V12.2955L15.2241 12.2335V12.7816H15.6485V12.9554H15.2241V13.7449C15.2241 14.0071 15.2706 14.075 15.4422 14.075C15.5148 14.075 15.5904 14.0661 15.6485 14.0484V14.24C15.573 14.2576 15.4711 14.2693 15.3812 14.2693Z" fill="black"/>
<path d="M16.4391 14.399C16.2705 14.8497 16.1427 15 15.8258 15C15.7735 15 15.7009 14.9942 15.6427 14.9852L15.6659 14.7821C15.7241 14.8026 15.7823 14.8114 15.8462 14.8114C16.0206 14.8114 16.1078 14.7289 16.2211 14.4197L16.288 14.2458L15.7357 12.7816H15.9856L16.288 13.6212C16.3344 13.7538 16.3664 13.8598 16.3985 13.9688H16.4013C16.4274 13.8746 16.4884 13.6919 16.5466 13.524L16.8054 12.7816H17.0438L16.4391 14.399Z" fill="black"/>
<path d="M18.3487 14.2724C17.9622 14.2724 17.7122 14.0336 17.7122 13.5211C17.7122 13.1027 17.9678 12.7551 18.401 12.7551C18.7527 12.7551 19.0405 12.9524 19.0405 13.4887C19.0405 13.9246 18.7759 14.2724 18.3487 14.2724ZM18.3806 12.9377C18.154 12.9377 17.9389 13.1116 17.9389 13.5034C17.9389 13.8776 18.0986 14.0838 18.3806 14.0838C18.6074 14.0838 18.8137 13.907 18.8137 13.5034C18.8137 13.1498 18.6684 12.9377 18.3806 12.9377Z" fill="black"/>
<path d="M20.2117 12.2925C20.1389 12.2689 20.0606 12.2601 19.985 12.2601C19.764 12.2601 19.6652 12.3897 19.6652 12.6726V12.7816H20.0925V12.9554H19.6652V14.2458H19.4473V12.9554H19.1333V12.7816H19.4473V12.6785C19.4473 12.2689 19.6477 12.0804 19.9936 12.0804C20.0749 12.0804 20.1535 12.0891 20.232 12.107L20.2117 12.2925Z" fill="black"/>
<path d="M22.8391 14.2458L22.6647 13.0202C22.6298 12.7786 22.6153 12.6314 22.6036 12.5224H22.5979C22.5775 12.6048 22.5485 12.7197 22.5019 12.8552L22.0428 14.2458H21.7899L21.3539 12.9437C21.3045 12.7993 21.2522 12.6431 21.2288 12.5224H21.226C21.2174 12.6814 21.1969 12.8405 21.1736 13.0438L21.0312 14.2458H20.8016L21.0807 12.2572H21.3627L21.8101 13.6006C21.8596 13.7449 21.9004 13.8776 21.9206 13.9865H21.9265C21.9555 13.8511 21.9846 13.7627 22.0339 13.6212L22.4933 12.2572H22.784L23.0747 14.2458H22.8391Z" fill="black"/>
<path d="M24.2111 14.2458C24.2111 14.1338 24.2111 14.0218 24.2256 13.9364H24.2197C24.15 14.1221 23.964 14.2724 23.7169 14.2724C23.4873 14.2724 23.3217 14.1485 23.3217 13.9159C23.3217 13.6094 23.6355 13.3972 24.1995 13.3972V13.2765C24.1995 13.0555 24.1209 12.9319 23.871 12.9319C23.7315 12.9319 23.557 12.9761 23.4292 13.0586L23.4088 12.8641C23.5455 12.8022 23.7141 12.7551 23.9087 12.7551C24.307 12.7551 24.4203 12.9554 24.4203 13.2323V13.8068C24.4203 13.9512 24.4203 14.1162 24.4261 14.2458H24.2111ZM24.1995 13.5593C23.656 13.5593 23.5396 13.7332 23.5396 13.8746C23.5396 14.0071 23.6326 14.0926 23.7751 14.0926C24.0309 14.0926 24.1995 13.8363 24.1995 13.583V13.5593Z" fill="black"/>
<path d="M25.7661 14.2458V13.2971C25.7661 13.0673 25.705 12.9348 25.4958 12.9348C25.237 12.9348 25.054 13.1941 25.054 13.5416V14.2458H24.8359V12.7816H25.051C25.051 12.8758 25.0422 13.0172 25.0278 13.1056L25.0337 13.1086C25.115 12.8965 25.298 12.7521 25.551 12.7521C25.8823 12.7521 25.984 12.9642 25.984 13.2236V14.2458H25.7661Z" fill="black"/>
<path d="M26.9434 14.2635C26.6207 14.2635 26.3183 14.1191 26.3183 13.5652C26.3183 13.085 26.5567 12.7609 27.0276 12.7609C27.1465 12.7609 27.266 12.7786 27.3677 12.811L27.3443 13.0054C27.2485 12.9672 27.135 12.9406 27.0129 12.9406C26.702 12.9406 26.5479 13.1734 26.5479 13.527C26.5479 13.8274 26.6409 14.075 26.9898 14.075C27.1176 14.075 27.2571 14.0426 27.3529 13.9925L27.3733 14.1839C27.2775 14.2223 27.1205 14.2635 26.9434 14.2635Z" fill="black"/>
<path d="M28.6057 14.2458V13.2971C28.6057 13.0673 28.5445 12.9348 28.3355 12.9348C28.0767 12.9348 27.8937 13.1941 27.8937 13.5416V14.2458H27.6758V12.0952H27.8937V12.811C27.8937 12.9082 27.8878 13.0291 27.8704 13.1027L27.8763 13.1056C27.9605 12.8906 28.1406 12.7521 28.3908 12.7521C28.7219 12.7521 28.8237 12.9642 28.8237 13.2236V14.2458H28.6057Z" fill="black"/>
<path d="M30.3497 13.4681H29.3846C29.3701 13.907 29.5416 14.0896 29.8642 14.0896C30.0153 14.0896 30.1753 14.0514 30.2829 13.9954L30.3033 14.1839C30.1696 14.24 30.0067 14.2724 29.8266 14.2724C29.3905 14.2724 29.1581 14.0336 29.1581 13.5211C29.1581 13.0821 29.3905 12.7551 29.7915 12.7551C30.1897 12.7551 30.3553 13.035 30.3553 13.3591C30.3553 13.3856 30.3553 13.4239 30.3497 13.4681ZM29.7799 12.923C29.5765 12.923 29.4313 13.0732 29.3964 13.303H30.1288C30.1347 13.0762 30.0008 12.923 29.7799 12.923Z" fill="black"/>
<path d="M30.9222 14.2724C30.8148 14.2724 30.7042 14.2605 30.617 14.2429L30.6229 14.0395C30.716 14.0661 30.8323 14.0867 30.9455 14.0867C31.1549 14.0867 31.3003 13.9925 31.3003 13.8392C31.3003 13.4857 30.5966 13.7067 30.5966 13.1851C30.5966 12.9406 30.7944 12.7551 31.1605 12.7551C31.2507 12.7551 31.3524 12.7698 31.4426 12.7875L31.4367 12.979C31.3408 12.9466 31.2362 12.9289 31.1374 12.9289C30.9251 12.9289 30.8205 13.0172 30.8205 13.1616C30.8205 13.5122 31.5268 13.3119 31.5268 13.8097C31.5268 14.069 31.3003 14.2724 30.9222 14.2724Z" fill="black"/>
<path d="M32.3204 14.2693C32.0298 14.2693 31.9452 14.1398 31.9452 13.8363V12.9554H31.6315V12.7816H31.9452V12.2955L32.1634 12.2335V12.7816H32.5878V12.9554H32.1634V13.7449C32.1634 14.0071 32.2099 14.075 32.3814 14.075C32.4541 14.075 32.5298 14.0661 32.5878 14.0484V14.24C32.5121 14.2576 32.4104 14.2693 32.3204 14.2693Z" fill="black"/>
<path d="M33.9624 13.4681H32.9976C32.9831 13.907 33.1546 14.0896 33.4772 14.0896C33.6283 14.0896 33.7882 14.0514 33.8956 13.9954L33.916 14.1839C33.7823 14.24 33.6197 14.2724 33.4393 14.2724C33.0035 14.2724 32.7708 14.0336 32.7708 13.5211C32.7708 13.0821 33.0035 12.7551 33.4045 12.7551C33.8027 12.7551 33.9683 13.035 33.9683 13.3591C33.9683 13.3856 33.9683 13.4239 33.9624 13.4681ZM33.3929 12.923C33.1895 12.923 33.044 13.0732 33.0091 13.303H33.7415C33.7474 13.0762 33.6138 12.923 33.3929 12.923Z" fill="black"/>
<path d="M34.9914 12.973C34.6718 12.92 34.5207 13.1675 34.5207 13.6595V14.2458H34.3027V12.7816H34.5177C34.5177 12.8789 34.5062 13.0231 34.4858 13.1498L34.4885 13.1527C34.5467 12.9377 34.6978 12.7197 35.0003 12.7551L34.9914 12.973Z" fill="black"/>
</g>
<defs>
<clipPath id="clip0_672_7">
<rect width="35" height="15" fill="white"/>
</clipPath>
</defs>
</svg>
