<svg width="35" height="20" viewBox="0 0 35 20" fill="none" xmlns="http://www.w3.org/2000/svg">
<path d="M13.3057 19.4124C13.101 19.3745 13.0402 19.3582 12.9638 19.3208C12.7122 19.1975 12.5809 18.9477 12.5809 18.5928V18.4648L12.8715 18.4606C13.0313 18.4582 13.1689 18.4582 13.1772 18.4605C13.1862 18.4629 13.1957 18.5206 13.2007 18.6031C13.2119 18.7863 13.2528 18.8785 13.3339 18.9028C13.4114 18.926 13.4806 18.9022 13.5245 18.8372L13.5587 18.7867L13.5625 18.03L13.5662 17.2734H13.9157H14.2651L14.2598 18.0153C14.2547 18.7242 14.2531 18.7621 14.225 18.8639C14.1247 19.2266 13.896 19.3928 13.4698 19.4127C13.3984 19.416 13.3245 19.4159 13.3057 19.4124ZM17.2514 19.4014C16.823 19.3297 16.5207 19.0438 16.4349 18.6293C16.4119 18.5186 16.4087 18.4635 16.4147 18.2855C16.4227 18.0469 16.4396 17.9686 16.5204 17.7957C16.6778 17.4585 16.9903 17.2516 17.3892 17.2205C17.7676 17.1909 18.059 17.2803 18.2695 17.4904C18.3892 17.61 18.4328 17.6786 18.4817 17.8244C18.5406 17.9997 18.5674 17.9846 18.1967 17.9846H17.8769L17.8396 17.9084C17.7519 17.7292 17.5114 17.6597 17.3269 17.7601C17.2515 17.8011 17.2022 17.8575 17.1618 17.9487C17.072 18.1517 17.0728 18.5199 17.1634 18.6975C17.2762 18.9184 17.5846 18.9811 17.7948 18.8258C17.8475 18.7868 17.9148 18.6951 17.9148 18.6621C17.9148 18.6581 17.844 18.6547 17.7575 18.6547H17.6002V18.4359V18.2171H18.0789H18.5576V18.7915V19.3659H18.3331H18.1086L18.099 19.2633C18.0937 19.2069 18.0864 19.1608 18.0827 19.1608C18.0791 19.1608 18.0444 19.1894 18.0057 19.2245C17.9267 19.296 17.781 19.3687 17.67 19.392C17.5505 19.4171 17.3694 19.4212 17.2514 19.4014ZM22.3732 19.4111C22.2273 19.3955 22.096 19.3583 21.965 19.2955C21.8437 19.2373 21.8074 19.2115 21.7118 19.1155C21.5274 18.9305 21.4414 18.7296 21.4163 18.4252C21.3768 17.9464 21.5556 17.5612 21.9119 17.3573C22.1004 17.2494 22.3861 17.1951 22.6366 17.2194C23.1133 17.2657 23.4424 17.5423 23.5648 17.9995C23.6088 18.1638 23.609 18.4612 23.5651 18.6246C23.4983 18.8739 23.3989 19.0294 23.2005 19.1945C23.0158 19.3484 22.6594 19.4417 22.3732 19.4111ZM22.6814 18.8734C22.8361 18.7985 22.9198 18.6017 22.9198 18.3128C22.9198 18.0262 22.8354 17.8367 22.668 17.7478C22.6247 17.7248 22.5885 17.7183 22.5032 17.7182C22.4076 17.7179 22.3846 17.723 22.3219 17.7577C22.1672 17.8434 22.0865 18.0314 22.0865 18.306C22.0865 18.6993 22.2535 18.9272 22.5281 18.9087C22.5837 18.9049 22.6458 18.8906 22.6814 18.8734ZM26.7497 19.4004C26.5911 19.3769 26.5303 19.3587 26.3944 19.2942C26.2969 19.2479 26.2577 19.2184 26.1548 19.1143C26.0135 18.9714 25.9383 18.839 25.8861 18.6411C25.8442 18.4823 25.841 18.1522 25.8797 17.9983C25.9771 17.6114 26.2377 17.3502 26.6255 17.2508C26.7311 17.2237 26.791 17.2171 26.9343 17.2169C27.2906 17.2163 27.5228 17.3052 27.7421 17.5264C27.9409 17.727 28.0377 17.9826 28.0368 18.3047C28.036 18.6307 27.9478 18.8821 27.7656 19.0789C27.6077 19.2495 27.4137 19.3506 27.16 19.3948C26.9952 19.4235 26.9129 19.4246 26.7497 19.4004ZM27.114 18.8762C27.2398 18.8119 27.3113 18.6966 27.3469 18.5005C27.397 18.2248 27.3276 17.9232 27.1863 17.8022C26.9948 17.6383 26.7102 17.7024 26.601 17.9341C26.5467 18.0494 26.5296 18.1422 26.53 18.3197C26.5308 18.6265 26.6355 18.8358 26.8177 18.8944C26.9022 18.9216 27.0418 18.913 27.114 18.8762ZM31.6517 19.4005C31.184 19.3287 30.8729 19.0443 30.7823 18.6054C30.7448 18.4238 30.752 18.1131 30.7973 17.9576C30.856 17.7561 30.9854 17.5552 31.133 17.4364C31.347 17.2643 31.6178 17.1923 31.9455 17.2205C32.3652 17.2566 32.6575 17.4529 32.7803 17.7813C32.8091 17.8581 32.8523 18.041 32.8437 18.0496C32.8403 18.053 32.3944 18.0556 32.2277 18.0533C32.2158 18.0531 32.2013 18.0293 32.1921 17.9949C32.1545 17.8554 32.0943 17.7871 31.967 17.7395C31.7866 17.672 31.5985 17.7396 31.5165 17.9015C31.4541 18.0246 31.4351 18.1264 31.4345 18.3402C31.4339 18.5161 31.4377 18.55 31.468 18.6401C31.5143 18.7782 31.5912 18.8586 31.7083 18.8914C31.9533 18.96 32.1341 18.8598 32.1939 18.6224L32.2099 18.559H32.5349H32.8599L32.842 18.6513C32.7831 18.9543 32.619 19.1734 32.3534 19.3039C32.1498 19.4039 31.8991 19.4385 31.6517 19.4005ZM33.7358 19.4068C33.5938 19.3843 33.4865 19.3505 33.3781 19.2942C33.1538 19.1777 33.0126 18.9955 32.9778 18.7778L32.969 18.7231H33.299C33.6179 18.7231 33.629 18.7239 33.629 18.75C33.629 18.7873 33.7041 18.8692 33.7713 18.9052C33.8525 18.9486 34.0465 18.948 34.1363 18.9041C34.2658 18.8407 34.2592 18.7179 34.1227 18.6487C34.0861 18.6302 33.9439 18.587 33.8066 18.5526C33.4321 18.459 33.2759 18.3879 33.1579 18.2573C33.0513 18.1393 32.9968 17.9402 33.0259 17.7751C33.0821 17.4558 33.3573 17.254 33.7832 17.2197C34.2428 17.1828 34.5807 17.3196 34.7296 17.6029C34.7729 17.6853 34.818 17.8113 34.8187 17.8514C34.8188 17.857 34.6746 17.8616 34.4984 17.8616C34.1896 17.8616 34.1776 17.8606 34.1692 17.8342C34.1319 17.7167 33.9423 17.6521 33.7729 17.6991C33.6643 17.7292 33.6361 17.8218 33.7118 17.8992C33.7586 17.9471 33.8535 17.9817 34.1487 18.0584C34.3878 18.1206 34.4749 18.1514 34.5834 18.2121C34.692 18.2728 34.7803 18.3626 34.8288 18.4617C34.8728 18.5516 34.8873 18.7351 34.8602 18.8585C34.7876 19.1893 34.4591 19.3926 33.9641 19.4131C33.8813 19.4165 33.7786 19.4138 33.7358 19.4068ZM14.2631 19.3561C14.2631 19.3545 14.2721 19.333 14.2831 19.3083C14.2942 19.2836 14.4058 18.9803 14.5313 18.6342C14.6567 18.2882 14.8187 17.842 14.8912 17.6427L15.0231 17.2803L15.3792 17.2766L15.7352 17.273L15.7779 17.3929C15.8013 17.4588 15.8645 17.6328 15.9183 17.7795C16.017 18.0485 16.1093 18.3022 16.2319 18.6411C16.2686 18.7426 16.3422 18.9446 16.3955 19.0899C16.4488 19.2352 16.4923 19.3552 16.4923 19.3566C16.4923 19.3579 16.3385 19.359 16.1505 19.359H15.8087L15.7801 19.2633C15.7644 19.2106 15.7454 19.1475 15.7379 19.1231L15.7243 19.0787H15.372H15.0197L14.9791 19.2166L14.9386 19.3545L14.6008 19.3566C14.415 19.358 14.2631 19.3574 14.2631 19.3558L14.2631 19.3561ZM15.6034 18.6453C15.6034 18.6401 15.5881 18.5862 15.5693 18.5256C15.5506 18.465 15.5018 18.3024 15.4608 18.1644C15.3899 17.9258 15.3771 17.8905 15.3662 17.9037C15.3635 17.9068 15.3322 18.014 15.2965 18.1419C15.2607 18.2698 15.2136 18.4326 15.1917 18.5038C15.1699 18.5749 15.152 18.638 15.152 18.644C15.152 18.6499 15.2536 18.6548 15.3777 18.6548C15.5018 18.6548 15.6034 18.6505 15.6034 18.6453ZM19.6961 19.3554L19.3644 19.3518V18.3126V17.2734L19.9833 17.2735C20.641 17.2735 20.7439 17.281 20.9235 17.3415C21.0386 17.3803 21.0882 17.4116 21.1552 17.4877C21.2244 17.5664 21.2606 17.663 21.2724 17.8008C21.2823 17.9166 21.2593 18.0543 21.2162 18.1377C21.175 18.2173 21.0763 18.3087 20.9967 18.341L20.9207 18.3718L21.0302 18.4242C21.231 18.5202 21.2657 18.5965 21.2749 18.9625C21.2812 19.2146 21.2928 19.2894 21.3276 19.3027C21.3519 19.3121 21.3541 19.3518 21.3304 19.3535C21.2386 19.3601 20.6677 19.3476 20.6587 19.3388C20.6522 19.3325 20.6419 19.2137 20.6357 19.0749C20.6177 18.6678 20.5931 18.6403 20.2365 18.6302L20.035 18.6244L20.0313 18.9918L20.0277 19.3591L19.6961 19.3554ZM20.5445 18.1386C20.6463 18.0923 20.6777 17.9854 20.6241 17.8674C20.6039 17.8229 20.5852 17.8058 20.531 17.7825C20.4725 17.7574 20.4345 17.7531 20.2523 17.7514L20.0414 17.7495L20.0376 17.9643L20.0338 18.179L20.2564 18.1738C20.4488 18.1692 20.4879 18.1643 20.5445 18.1386ZM23.8048 19.3547C23.7836 19.3506 23.7819 19.2717 23.7819 18.3118V17.2734H24.3887C24.8662 17.2734 25.0206 17.2778 25.113 17.2939C25.4757 17.3572 25.6425 17.5273 25.6261 17.8173C25.6187 17.9484 25.559 18.0665 25.4486 18.1687C25.4028 18.2112 25.3675 18.2476 25.3702 18.2496C25.373 18.2517 25.4103 18.27 25.4531 18.2905C25.5458 18.3349 25.6272 18.4256 25.6703 18.5327C25.6931 18.5891 25.7005 18.6364 25.701 18.73C25.7032 19.0778 25.5152 19.2684 25.1017 19.3378C25.0157 19.3522 23.8693 19.3671 23.8048 19.3547ZM24.9604 18.8501C24.9954 18.8343 25.0351 18.8047 25.0485 18.7844C25.0791 18.7375 25.0799 18.635 25.0498 18.5778C25.012 18.5056 24.9434 18.4871 24.6879 18.48L24.4656 18.4737V18.6821V18.8905L24.681 18.8847C24.8621 18.8797 24.9067 18.8742 24.9604 18.8501ZM24.9081 18.0762C24.9879 18.0238 25.0214 17.9137 24.9816 17.8342C24.9484 17.7676 24.8893 17.7522 24.6675 17.7521L24.4657 17.7521V17.9312V18.1102L24.6681 18.1055C24.8348 18.1017 24.8771 18.0965 24.9081 18.0762ZM28.6918 18.5832L28.6918 17.8073L28.3806 17.8037L28.0695 17.8L28.0655 17.5367L28.0615 17.2734H29.334H30.6065L30.6065 18.3163L30.6065 19.3591H30.2714H29.9363L29.9363 18.583L29.9363 17.8068H29.6491H29.3619L29.3619 18.583L29.3619 19.3591H29.0268H28.6918L28.6918 18.5832ZM3.93732 14.8035C3.91099 14.8005 3.82176 14.7918 3.73901 14.7841C3.29559 14.7426 2.84356 14.6318 2.43291 14.4639C1.60915 14.1271 0.956721 13.5229 0.554727 12.7246C0.333404 12.2851 0.208229 11.8998 0.108666 11.3515C0.000718246 10.7571 -0.00358298 10.5936 0.00123269 7.26906L0.00533026 4.43803H1.5371H3.06887L3.07599 7.48105C3.08384 10.8248 3.0776 10.5811 3.16408 10.9082C3.25237 11.2421 3.466 11.5562 3.71161 11.7133C3.99741 11.8961 4.27583 11.9609 4.72371 11.9487C4.99895 11.9412 5.12373 11.9209 5.30764 11.8538C5.76854 11.6857 6.0745 11.2759 6.17295 10.695C6.21894 10.4236 6.22119 10.2679 6.22124 7.3477L6.22128 4.43119H7.75305H9.28482L9.28483 7.36822C9.28484 9.24817 9.28984 10.3594 9.29873 10.4557C9.33142 10.8098 9.41574 11.0937 9.55867 11.331C9.74609 11.6421 10.0304 11.8338 10.4336 11.9208C10.5967 11.956 11.0991 11.957 11.2651 11.9224C11.8209 11.8068 12.1831 11.4673 12.3337 10.9206C12.4293 10.574 12.4212 10.8625 12.4296 7.48784L12.4372 4.43798L13.9656 4.4345L15.4939 4.43102V7.43882C15.4939 9.41036 15.489 10.5188 15.4795 10.6563C15.3486 12.5553 14.4993 13.8874 13.0458 14.4735C12.6585 14.6297 12.3331 14.7118 11.8355 14.7788C11.6263 14.807 10.9679 14.8191 10.7277 14.7992C9.75082 14.7182 8.95461 14.3935 8.29673 13.8077C8.12349 13.6535 7.86142 13.3596 7.76498 13.2114C7.7534 13.1937 7.74944 13.1943 7.73523 13.2162C7.68094 13.2997 7.49658 13.5145 7.35909 13.6544C6.74575 14.2783 5.95214 14.6546 4.98855 14.7786C4.82923 14.7991 4.06121 14.8173 3.93732 14.8035ZM30.2235 14.8032C29.7729 14.7644 29.5194 14.7246 29.1821 14.6401C28.6349 14.5029 28.179 14.3057 27.7686 14.0285C27.565 13.8911 27.464 13.8056 27.2489 13.589C26.9099 13.2477 26.6836 12.8898 26.5305 12.4527C26.4423 12.2012 26.3668 11.7998 26.3668 11.5832V11.4881L27.8746 11.4916L29.3824 11.4951L29.3915 11.5772C29.4099 11.7428 29.5006 11.9194 29.6198 12.0219C29.8242 12.1975 30.1585 12.2834 30.636 12.2828C31.2264 12.2823 31.5726 12.1738 31.7652 11.9294C31.8483 11.8237 31.8806 11.7271 31.8888 11.5593C31.8972 11.3868 31.872 11.2788 31.7957 11.1608C31.6494 10.9343 31.3491 10.8119 30.6882 10.7093C30.5868 10.6935 30.4516 10.6719 30.3877 10.6612C30.3237 10.6505 30.2222 10.6349 30.162 10.6265C29.3519 10.514 28.734 10.3679 28.2789 10.1815C27.6585 9.9273 27.2156 9.5897 26.9322 9.15501C26.7263 8.83913 26.5986 8.47057 26.5439 8.03494C26.5235 7.87266 26.5238 7.42919 26.5444 7.24855C26.6422 6.39157 27.0309 5.65936 27.6728 5.1225C28.2726 4.62089 29.0361 4.31736 29.9841 4.20366C30.2375 4.17326 31.0304 4.16825 31.2697 4.19551C32.3813 4.32218 33.2507 4.70266 33.8826 5.33907C34.0503 5.50801 34.1169 5.58724 34.2418 5.76634C34.3625 5.93938 34.4708 6.13435 34.5448 6.3117C34.5761 6.38692 34.6074 6.46077 34.6142 6.47582C34.6773 6.61566 34.773 7.07158 34.7869 7.29882L34.7956 7.44001H33.3028C31.9767 7.44001 31.81 7.4376 31.81 7.41922C31.81 7.38501 31.7448 7.20908 31.7121 7.15516C31.5874 6.94942 31.3839 6.81371 31.0881 6.73903C30.9848 6.71296 30.9322 6.70895 30.6953 6.70907C30.4527 6.70919 30.4079 6.71285 30.2987 6.74131C29.8735 6.8522 29.6354 7.12398 29.6354 7.49839C29.6354 7.77284 29.7389 7.92227 30.0252 8.06107C30.2621 8.17593 30.517 8.23246 31.3578 8.3566C32.2249 8.48461 32.6727 8.58762 33.1487 8.76858C33.3437 8.8427 33.6879 9.00519 33.7758 9.06463C33.7966 9.07867 33.8502 9.11429 33.895 9.14379C34.1117 9.28644 34.3979 9.55206 34.5118 9.71627C34.7319 10.0334 34.8254 10.2338 34.9143 10.5788C35.0309 11.031 35.0283 11.6539 34.9079 12.1405C34.8074 12.5467 34.6673 12.8646 34.451 13.1773C34.3848 13.273 34.2561 13.438 34.2322 13.4577C34.2276 13.4614 34.1939 13.5001 34.1574 13.5437C34.0809 13.6347 33.7981 13.8809 33.6445 13.9901C33.0579 14.4071 32.3088 14.6717 31.413 14.7785C31.238 14.7993 30.3842 14.8171 30.2235 14.8032ZM16.0547 7.27589V0H17.5865H19.1182V2.75581C19.1182 4.27151 19.1232 5.51162 19.1292 5.51162C19.1353 5.51162 19.1652 5.47624 19.1957 5.43299C19.499 5.00331 19.9804 4.60921 20.4448 4.41036C20.8055 4.25595 21.1243 4.18881 21.5595 4.17565C22.7393 4.13998 23.8699 4.57222 24.6581 5.3603C25.4943 6.19629 25.9483 7.33484 26.0384 8.82134C26.0467 8.95862 26.0521 10.125 26.0521 11.7994L26.0522 14.5518H24.5207H22.9893L22.9852 11.7242C22.9813 9.08421 22.9794 8.88703 22.9566 8.75295C22.8527 8.14152 22.6816 7.77522 22.3616 7.47893C22.1845 7.315 22.014 7.2169 21.7509 7.12774C21.5351 7.05456 21.404 7.03744 21.0603 7.03745C20.791 7.03747 20.7347 7.04136 20.6093 7.06866C20.2394 7.14922 19.9646 7.29363 19.7203 7.53575C19.3861 7.86696 19.1838 8.37293 19.1324 9.00604C19.1232 9.119 19.1182 10.1315 19.1182 11.8663V14.5518H17.5864H16.0547L16.0547 7.27589Z" fill="black"/>
</svg>
