<svg width="12" height="11" viewBox="0 0 12 11" fill="none" xmlns="http://www.w3.org/2000/svg">
<path d="M6.40582 1.01565L5.93132 0.154507C5.81806 -0.0515024 5.52174 -0.0515024 5.40848 0.154507L0.037591 9.89895C-0.0722482 10.0981 0.0717632 10.3417 0.299252 10.3417H1.26584L6.40582 1.01565Z" fill="black"/>
<path d="M7.57989 3.14555L6.84373 1.81039L2.14163 10.3417H3.61348L7.57989 3.14555Z" fill="black"/>
<path d="M7.1376 8.84205H8.89845V10.3417H11.041C11.268 10.3417 11.4121 10.0981 11.3027 9.89895L8.01827 3.94029L4.48975 10.3417H7.1376V8.84205ZM8.01827 6.54861C8.49473 6.54861 8.88039 6.93475 8.88039 7.41072C8.88039 7.88669 8.49424 8.27284 8.01827 8.27284C7.5423 8.27284 7.15615 7.88669 7.15615 7.41072C7.15615 6.93475 7.5423 6.54861 8.01827 6.54861Z" fill="black"/>
</svg>
