<svg width="7" height="10" viewBox="0 0 7 10" fill="none" xmlns="http://www.w3.org/2000/svg">
<g clip-path="url(#clip0_670_2)">
<path d="M2.59164 3.86006L3.48618 4.98825L6.12086 1.75779C6.26021 1.56413 6.32612 1.46235 6.2602 1.29753C6.22533 1.21016 6.1675 1.13486 6.09339 1.08033C6.01928 1.02579 5.93191 0.994249 5.84136 0.989326C5.78992 0.986274 5.73844 0.994283 5.69009 1.01285C5.64174 1.03142 5.59754 1.06016 5.56027 1.09728L2.59164 3.86006Z" fill="#2F2F2F"/>
<path d="M4.95078 4.39966L0.76388 0.207472C0.680943 0.100304 0.564292 0.0273037 0.434651 0.00144834C0.348788 -0.000630421 0.264294 0.0241556 0.192042 0.0726212C0.119789 0.121087 0.0630689 0.191016 0.0292103 0.273402C-0.0367157 0.438221 0.0106685 0.554004 0.155153 0.770329L3.48698 4.99053L1.00704 8.1699C0.942495 8.23956 0.896719 8.32579 0.87433 8.41984C0.85194 8.5139 0.853732 8.61245 0.879534 8.70555C0.912952 8.79031 0.969918 8.86269 1.04309 8.91336C1.11626 8.96403 1.2023 8.99068 1.29011 8.98987C1.34683 8.98862 1.4026 8.97453 1.45359 8.94856C1.50457 8.92259 1.54954 8.88537 1.58539 8.83947L4.9484 5.57605C5.02735 5.50189 5.09054 5.41129 5.13385 5.31007C5.17717 5.20884 5.19965 5.09926 5.19987 4.9884C5.20009 4.87754 5.17806 4.76786 5.13515 4.66645C5.09224 4.56504 5.02943 4.47416 4.95078 4.39966Z" fill="black"/>
<path d="M6.84367 9.21504L3.47828 4.98125L2.58415 3.85347L2.0358 4.37018C1.95733 4.44944 1.89494 4.54437 1.85232 4.64931C1.80971 4.75425 1.78775 4.86707 1.78775 4.98104C1.78775 5.09502 1.80971 5.20784 1.85232 5.31278C1.89494 5.41772 1.95733 5.51264 2.0358 5.5919L6.30402 9.88503C6.34153 9.92588 6.38728 9.9575 6.43794 9.9776C6.48861 9.99769 6.54292 10.0058 6.59694 10.0012C6.67876 9.99982 6.75832 9.97289 6.82536 9.92391C6.8924 9.87494 6.94387 9.80616 6.97316 9.7264C6.99741 9.63688 6.9982 9.54219 6.97542 9.45224C6.95264 9.36229 6.90714 9.28037 6.84367 9.21504Z" fill="#2F2F2F"/>
</g>
<defs>
<clipPath id="clip0_670_2">
<rect width="7" height="10" fill="white"/>
</clipPath>
</defs>
</svg>
