<svg width="35" height="39" viewBox="0 0 35 39" fill="none" xmlns="http://www.w3.org/2000/svg">
<path d="M12.767 38.0553C10.5083 37.2649 9.39977 36.7323 7.77196 35.6555C6.09603 34.5469 3.66607 32.3688 2.35662 30.8015C1.6503 29.9561 1.47005 29.6961 0.934939 28.7509C0.578597 28.1214 0.599428 28.0414 0.972774 28.6056C1.89385 29.9974 3.45792 31.055 5.18424 31.4532C6.13358 31.6721 7.86826 31.669 8.9288 31.4463C12.7575 30.6425 17.133 27.8803 20.4535 24.171C22.0517 22.3857 22.9842 21.077 24.2773 18.8043C25.0715 17.4084 25.3703 17.0242 25.8533 16.7778C26.397 16.5004 26.9729 16.5775 27.8708 17.0477C29.8724 18.0961 33.2755 20.1989 34.2384 20.9824C34.8374 21.4699 34.9996 21.7878 35 22.4754C35.0002 22.7954 34.9358 23.2472 34.857 23.4794C34.5337 24.4318 32.5832 27.5066 31.0529 29.4763C30.0198 30.8061 27.2328 33.6392 26.107 34.504C23.6453 36.3951 21.4644 37.5276 19.103 38.1412C18.0812 38.4067 17.9681 38.4165 15.9201 38.4161L13.7967 38.4157L12.767 38.0553ZM6.18253 30.7288C3.72871 30.3208 1.66061 28.6227 0.77941 26.2923C0.281033 24.9744 0.0718823 23.8035 0.0157771 22.0175C-0.0418509 20.1831 0.050465 19.151 0.424608 17.4469C0.872049 15.409 1.63188 13.3168 2.70667 11.1633C3.33797 9.89838 4.76239 7.48549 5.13656 7.04721L5.37147 6.77205L5.96032 7.14794C6.28418 7.35469 6.56242 7.52384 6.57862 7.52384C6.59483 7.52384 6.94636 7.09205 7.3598 6.5643C7.77325 6.03655 8.39092 5.2888 8.73241 4.90264C9.43287 4.11055 9.43911 4.14964 8.55072 3.76513C8.27129 3.64419 8.04194 3.51673 8.04107 3.48188C8.03915 3.40613 9.72835 1.83544 10.5165 1.18007L11.0745 0.716115L11.7459 0.941849C12.1152 1.066 12.8609 1.38661 13.4031 1.65431L14.3888 2.14103L15.3566 1.45322C15.8888 1.07492 16.6137 0.593192 16.9675 0.382704L17.6106 0L18.0908 0.267279C19.2169 0.894022 21.5545 2.60481 21.4987 2.76134C21.4846 2.8008 21.094 3.07065 20.6306 3.36101C19.6085 4.00145 18.4343 4.83297 18.4322 4.9178C18.4315 4.95188 18.7466 5.24549 19.1327 5.57025C19.5189 5.89502 19.8349 6.19076 19.8349 6.22744C19.8349 6.26413 19.4662 6.60838 19.0157 6.99243C17.2775 8.47421 15.308 10.6056 14.0464 12.3701C13.6396 12.939 13.381 13.2205 13.2953 13.1877C13.2235 13.1601 12.5724 12.7312 11.8484 12.2346L10.5322 11.3317L10.3858 11.5449C10.3053 11.6622 9.97929 12.1721 9.66137 12.678L9.08334 13.5979L10.5326 14.547C11.3297 15.069 11.9689 15.5251 11.9531 15.5604C11.9374 15.5958 11.6444 16.1716 11.302 16.8401C10.7846 17.8503 10.0327 19.5131 9.7913 20.181C9.74176 20.3181 9.5902 20.2597 8.72269 19.7695C8.16671 19.4553 7.4966 19.0613 7.23355 18.8939L6.75529 18.5895L6.31999 19.9607C5.82759 21.5118 5.4483 23.2258 5.57093 23.3457C5.71152 23.4833 8.07573 24.7509 8.29983 24.8089C8.50711 24.8626 8.51123 24.8852 8.44025 25.5788C8.34923 26.4683 8.34429 29.6803 8.43292 30.3423L8.49872 30.8338L7.59039 30.8228C7.09081 30.8168 6.45727 30.7745 6.18253 30.7288ZM7.24206 17.2212L7.73072 16.0527L6.83193 15.4469C6.3376 15.1137 5.69408 14.6681 5.40189 14.4566C5.1097 14.245 4.84965 14.1059 4.824 14.1474C4.79836 14.1889 4.57 14.7274 4.31654 15.344L3.85571 16.4651L4.27713 16.7827C5.20172 17.4797 6.66814 18.475 6.70951 18.4336C6.73365 18.4095 6.9733 17.8639 7.24206 17.2212ZM10.7571 9.09188C11.4029 8.25326 12.9949 6.40047 13.0696 6.40047C13.095 6.40047 13.5622 6.71728 14.1077 7.10449L15.0996 7.80851L15.8524 7.07124C16.2664 6.66575 16.9422 6.04809 17.3541 5.69866C17.766 5.34924 18.138 5.03224 18.1807 4.99421C18.2234 4.95619 17.9496 4.68301 17.5722 4.38714C16.7489 3.74169 14.5596 2.28145 14.4152 2.28145C14.2469 2.28145 12.1811 4.14231 11.1852 5.1909C10.1903 6.23847 8.30052 8.54436 8.34195 8.66016C8.37844 8.76216 9.93962 9.85014 10.0604 9.85777C10.1165 9.8613 10.43 9.51665 10.7571 9.09188ZM9.39687 24.9027C8.77902 24.6319 7.99455 24.2654 7.65361 24.0881L7.03371 23.7659L7.29463 22.6425C7.43813 22.0247 7.66552 21.174 7.79994 20.752L8.04433 19.9849L9.84397 20.915C10.8338 21.4266 11.6392 21.8771 11.6337 21.9162C11.6282 21.9553 11.4722 22.5138 11.2869 23.1574C11.1017 23.801 10.9031 24.5698 10.8456 24.8659C10.7877 25.1637 10.6917 25.4021 10.6306 25.3996C10.5699 25.3971 10.0147 25.1735 9.39687 24.9027Z" fill="black"/>
</svg>
